<svg width="1298" height="87" viewBox="0 0 1298 87" fill="none" xmlns="http://www.w3.org/2000/svg">
<path d="M0.429532 86V0.799995H58.2695V18.08H20.1095V36.44H51.5495V52.4H20.1095V86H0.429532ZM85.3705 0.799995H106.61L135.89 86H115.73L109.13 66.92H82.6105L76.1305 86H55.9705L85.3705 0.799995ZM105.89 53.36L95.9305 20.6L85.7305 53.36H105.89ZM195.346 25.76C195.106 25.36 194.266 24.76 192.826 23.96C191.386 23.08 189.586 22.16 187.426 21.2C185.266 20.24 182.906 19.4 180.346 18.68C177.786 17.96 175.226 17.6 172.666 17.6C169.306 17.6 166.706 18.2 164.866 19.4C163.026 20.52 162.106 22.28 162.106 24.68C162.106 26.6 162.786 28.12 164.146 29.24C165.586 30.36 167.626 31.36 170.266 32.24C172.906 33.04 176.146 34 179.986 35.12C185.426 36.56 190.146 38.32 194.146 40.4C198.146 42.4 201.186 45 203.266 48.2C205.426 51.4 206.506 55.64 206.506 60.92C206.506 65.72 205.626 69.8 203.866 73.16C202.106 76.44 199.706 79.12 196.666 81.2C193.706 83.2 190.306 84.68 186.466 85.64C182.626 86.52 178.666 86.96 174.586 86.96C170.426 86.96 166.146 86.56 161.746 85.76C157.426 84.88 153.266 83.68 149.266 82.16C145.266 80.56 141.586 78.64 138.226 76.4L146.866 59.24C147.186 59.64 148.226 60.4 149.986 61.52C151.746 62.56 153.906 63.68 156.466 64.88C159.106 66 162.026 67 165.226 67.88C168.426 68.76 171.666 69.2 174.946 69.2C178.466 69.2 181.066 68.64 182.746 67.52C184.506 66.4 185.386 64.84 185.386 62.84C185.386 60.68 184.466 59 182.626 57.8C180.866 56.6 178.426 55.52 175.306 54.56C172.266 53.6 168.746 52.52 164.746 51.32C159.546 49.72 155.226 47.92 151.786 45.92C148.426 43.92 145.906 41.48 144.226 38.6C142.626 35.72 141.826 32.12 141.826 27.8C141.826 21.8 143.226 16.76 146.026 12.68C148.906 8.52 152.746 5.4 157.546 3.32C162.346 1.16 167.586 0.0799975 173.266 0.0799975C177.266 0.0799975 181.106 0.559996 184.786 1.51999C188.546 2.48 192.026 3.68 195.226 5.12C198.506 6.56 201.426 8 203.986 9.44L195.346 25.76ZM283.975 18.08H258.055V86H238.375V18.08H212.335V0.799995H283.975V18.08ZM354.466 68.72V86H294.586V0.799995H353.386V18.08H314.266V34.64H347.866V50.6H314.266V68.72H354.466ZM367.422 86V0.799995H405.822C409.822 0.799995 413.502 1.64 416.862 3.32C420.302 4.92 423.262 7.12 425.742 9.92C428.222 12.64 430.142 15.72 431.502 19.16C432.942 22.6 433.662 26.08 433.662 29.6C433.662 33.12 433.102 36.48 431.982 39.68C430.862 42.8 429.262 45.64 427.182 48.2C425.102 50.68 422.622 52.72 419.742 54.32L438.462 86H416.742L400.422 58.52H387.102V86H367.422ZM387.102 41.36H405.102C406.702 41.36 408.102 40.88 409.302 39.92C410.582 38.88 411.622 37.48 412.422 35.72C413.222 33.96 413.622 31.92 413.622 29.6C413.622 27.28 413.142 25.28 412.182 23.6C411.302 21.84 410.182 20.48 408.822 19.52C407.462 18.56 406.022 18.08 404.502 18.08H387.102V41.36ZM477.82 86V0.799995H509.62C518.98 0.799995 526.78 2.71999 533.02 6.55999C539.34 10.32 544.1 15.44 547.3 21.92C550.5 28.32 552.1 35.44 552.1 43.28C552.1 51.92 550.34 59.44 546.82 65.84C543.3 72.24 538.34 77.2 531.94 80.72C525.62 84.24 518.18 86 509.62 86H477.82ZM532.06 43.28C532.06 38.32 531.18 33.96 529.42 30.2C527.66 26.36 525.1 23.4 521.74 21.32C518.38 19.16 514.34 18.08 509.62 18.08H497.5V68.72H509.62C514.42 68.72 518.46 67.64 521.74 65.48C525.1 63.24 527.66 60.2 529.42 56.36C531.18 52.44 532.06 48.08 532.06 43.28ZM582.8 0.799995H604.04L633.32 86H613.16L606.56 66.92H580.04L573.56 86H553.4L582.8 0.799995ZM603.32 53.36L593.36 20.6L583.16 53.36H603.32ZM699.779 18.08H673.859V86H654.179V18.08H628.139V0.799995H699.779V18.08ZM724.019 0.799995H745.259L774.539 86H754.379L747.779 66.92H721.259L714.779 86H694.619L724.019 0.799995ZM744.539 53.36L734.579 20.6L724.379 53.36H744.539ZM833.166 0.919994H851.286L860.166 28.16L869.046 0.919994H887.286L872.766 40.52L881.406 63.2L902.766 0.799995H924.246L891.006 86H873.966L860.166 52.64L846.486 86H829.326L796.206 0.799995H817.566L839.046 63.2L847.446 40.52L833.166 0.919994ZM932.648 86V0.799995H952.328V86H932.648ZM1034.54 18.08H1008.62V86H988.945V18.08H962.905V0.799995H1034.54V18.08ZM1118.48 0.799995V86H1098.8V51.08H1064.84V86H1045.16V0.799995H1064.84V33.8H1098.8V0.799995H1118.48Z" fill="url(#paint0_linear_1115_2392)"/>
<path d="M1186.29 0.799995H1207.53L1236.81 86H1216.65L1210.05 66.92H1183.53L1177.05 86H1156.89L1186.29 0.799995ZM1206.81 53.36L1196.85 20.6L1186.65 53.36H1206.81ZM1246.2 86V0.799995H1265.88V86H1246.2ZM1281.5 86V66.44H1297.22V86H1281.5Z" fill="url(#paint1_linear_1115_2392)"/>
<defs>
<linearGradient id="paint0_linear_1115_2392" x1="-7.99999" y1="49.9542" x2="1304" y2="51.465" gradientUnits="userSpaceOnUse">
<stop stop-color="white"/>
<stop offset="0.494792" stop-color="white" stop-opacity="0.3"/>
<stop offset="1" stop-color="white"/>
</linearGradient>
<linearGradient id="paint1_linear_1115_2392" x1="1350.86" y1="100.907" x2="1308.3" y2="-205.358" gradientUnits="userSpaceOnUse">
<stop stop-color="#A7F306"/>
<stop offset="1" stop-color="#F3CD06"/>
</linearGradient>
</defs>
</svg>
