<svg width="1440" height="72" viewBox="0 0 1440 72" fill="none" xmlns="http://www.w3.org/2000/svg">
<path d="M-723.716 49.18C-725.372 49.18 -726.944 48.844 -728.432 48.172C-729.896 47.5 -731.192 46.576 -732.32 45.4C-733.424 44.2 -734.288 42.808 -734.912 41.224C-735.536 39.64 -735.848 37.924 -735.848 36.076C-735.848 34.324 -735.536 32.68 -734.912 31.144C-734.288 29.584 -733.412 28.216 -732.284 27.04C-731.156 25.864 -729.836 24.94 -728.324 24.268C-726.812 23.596 -725.168 23.26 -723.392 23.26C-720.992 23.26 -718.94 23.776 -717.236 24.808C-715.508 25.816 -714.212 27.16 -713.348 28.84L-717.056 31.576C-717.704 30.304 -718.616 29.332 -719.792 28.66C-720.944 27.988 -722.204 27.652 -723.572 27.652C-724.652 27.652 -725.636 27.88 -726.524 28.336C-727.412 28.792 -728.18 29.416 -728.828 30.208C-729.476 31 -729.98 31.912 -730.34 32.944C-730.676 33.976 -730.844 35.068 -730.844 36.22C-730.844 37.444 -730.664 38.572 -730.304 39.604C-729.92 40.636 -729.392 41.536 -728.72 42.304C-728.024 43.072 -727.22 43.684 -726.308 44.14C-725.396 44.572 -724.388 44.788 -723.284 44.788C-721.988 44.788 -720.752 44.452 -719.576 43.78C-718.376 43.108 -717.26 42.124 -716.228 40.828V45.724C-718.364 48.028 -720.86 49.18 -723.716 49.18ZM-716.588 39.496H-721.736V35.86H-712.484V49H-716.588V39.496ZM-689.062 44.644V49H-706.81V23.44H-689.386V27.796H-701.842V33.952H-691.078V37.984H-701.842V44.644H-689.062ZM-664.633 27.796H-672.805V49H-677.737V27.796H-685.909V23.44H-664.633V27.796ZM-640.15 49.18C-642.19 49.18 -643.93 48.844 -645.37 48.172C-646.786 47.476 -647.938 46.528 -648.826 45.328C-649.69 44.128 -650.326 42.772 -650.734 41.26C-651.142 39.724 -651.346 38.128 -651.346 36.472V23.44H-646.378V36.472C-646.378 37.528 -646.282 38.56 -646.09 39.568C-645.874 40.552 -645.526 41.44 -645.046 42.232C-644.566 43.024 -643.93 43.648 -643.138 44.104C-642.346 44.56 -641.362 44.788 -640.186 44.788C-638.986 44.788 -637.99 44.56 -637.198 44.104C-636.382 43.624 -635.746 42.988 -635.29 42.196C-634.81 41.404 -634.462 40.516 -634.246 39.532C-634.03 38.524 -633.922 37.504 -633.922 36.472V23.44H-628.99V36.472C-628.99 38.224 -629.206 39.868 -629.638 41.404C-630.046 42.94 -630.706 44.296 -631.618 45.472C-632.506 46.624 -633.658 47.536 -635.074 48.208C-636.49 48.856 -638.182 49.18 -640.15 49.18ZM-622.546 49V23.44H-611.71C-610.534 23.44 -609.454 23.68 -608.47 24.16C-607.486 24.64 -606.634 25.288 -605.914 26.104C-605.17 26.92 -604.594 27.832 -604.186 28.84C-603.778 29.848 -603.574 30.88 -603.574 31.936C-603.574 33.376 -603.91 34.744 -604.582 36.04C-605.254 37.336 -606.178 38.392 -607.354 39.208C-608.53 40.024 -609.922 40.432 -611.53 40.432H-617.578V49H-622.546ZM-617.578 36.076H-611.818C-611.218 36.076 -610.678 35.908 -610.198 35.572C-609.718 35.236 -609.334 34.756 -609.046 34.132C-608.758 33.484 -608.614 32.752 -608.614 31.936C-608.614 31.048 -608.782 30.292 -609.118 29.668C-609.43 29.044 -609.85 28.576 -610.378 28.264C-610.882 27.952 -611.434 27.796 -612.034 27.796H-617.578V36.076ZM-571.511 27.796H-579.683V49H-584.615V27.796H-592.787V23.44H-571.511V27.796ZM-556.588 49.18C-558.46 49.18 -560.164 48.82 -561.7 48.1C-563.212 47.38 -564.52 46.408 -565.624 45.184C-566.704 43.936 -567.544 42.544 -568.144 41.008C-568.744 39.448 -569.044 37.852 -569.044 36.22C-569.044 34.516 -568.732 32.896 -568.108 31.36C-567.46 29.8 -566.584 28.42 -565.48 27.22C-564.352 25.996 -563.032 25.036 -561.52 24.34C-559.984 23.62 -558.304 23.26 -556.48 23.26C-554.632 23.26 -552.952 23.632 -551.44 24.376C-549.904 25.12 -548.596 26.116 -547.516 27.364C-546.436 28.612 -545.596 30.004 -544.996 31.54C-544.396 33.076 -544.096 34.66 -544.096 36.292C-544.096 37.972 -544.408 39.592 -545.032 41.152C-545.656 42.688 -546.532 44.068 -547.66 45.292C-548.764 46.492 -550.084 47.44 -551.62 48.136C-553.132 48.832 -554.788 49.18 -556.588 49.18ZM-564.004 36.22C-564.004 37.324 -563.836 38.392 -563.5 39.424C-563.164 40.456 -562.684 41.38 -562.06 42.196C-561.412 42.988 -560.632 43.624 -559.72 44.104C-558.784 44.56 -557.728 44.788 -556.552 44.788C-555.352 44.788 -554.284 44.548 -553.348 44.068C-552.412 43.564 -551.632 42.904 -551.008 42.088C-550.384 41.248 -549.916 40.324 -549.604 39.316C-549.268 38.284 -549.1 37.252 -549.1 36.22C-549.1 35.116 -549.28 34.06 -549.64 33.052C-549.976 32.02 -550.468 31.108 -551.116 30.316C-551.74 29.5 -552.52 28.864 -553.456 28.408C-554.368 27.928 -555.4 27.688 -556.552 27.688C-557.776 27.688 -558.856 27.94 -559.792 28.444C-560.704 28.924 -561.472 29.572 -562.096 30.388C-562.72 31.204 -563.2 32.116 -563.536 33.124C-563.848 34.132 -564.004 35.164 -564.004 36.22ZM-530.052 49C-530.052 47.92 -529.968 46.948 -529.8 46.084C-529.632 45.22 -529.344 44.416 -528.936 43.672C-528.504 42.928 -527.928 42.232 -527.208 41.584C-526.464 40.912 -525.528 40.264 -524.4 39.64C-523.416 39.112 -522.552 38.656 -521.808 38.272C-521.064 37.864 -520.44 37.492 -519.936 37.156C-519.408 36.82 -519.012 36.484 -518.748 36.148C-518.484 35.788 -518.352 35.38 -518.352 34.924C-518.352 34.444 -518.484 34.012 -518.748 33.628C-519.012 33.22 -519.384 32.896 -519.864 32.656C-520.344 32.416 -520.944 32.296 -521.664 32.296C-522.24 32.296 -522.78 32.368 -523.284 32.512C-523.764 32.656 -524.22 32.86 -524.652 33.124C-525.06 33.388 -525.444 33.688 -525.804 34.024C-526.164 34.336 -526.488 34.672 -526.776 35.032L-529.836 31.504C-529.5 31.168 -529.056 30.808 -528.504 30.424C-527.928 30.016 -527.256 29.644 -526.488 29.308C-525.696 28.948 -524.832 28.66 -523.896 28.444C-522.936 28.204 -521.916 28.084 -520.836 28.084C-519.204 28.084 -517.812 28.348 -516.66 28.876C-515.508 29.38 -514.632 30.088 -514.032 31C-513.408 31.912 -513.096 32.98 -513.096 34.204C-513.096 35.044 -513.252 35.788 -513.564 36.436C-513.876 37.084 -514.272 37.66 -514.752 38.164C-515.232 38.644 -515.76 39.076 -516.336 39.46C-516.888 39.844 -517.428 40.18 -517.956 40.468C-518.7 40.852 -519.372 41.212 -519.972 41.548C-520.572 41.86 -521.1 42.184 -521.556 42.52C-522.012 42.832 -522.42 43.156 -522.78 43.492C-523.116 43.828 -523.416 44.212 -523.68 44.644H-512.7V49H-530.052ZM-489.32 38.452C-489.32 40.564 -489.728 42.448 -490.544 44.104C-491.336 45.736 -492.44 47.02 -493.856 47.956C-495.248 48.892 -496.832 49.36 -498.608 49.36C-500.384 49.36 -501.98 48.892 -503.396 47.956C-504.788 47.02 -505.892 45.736 -506.708 44.104C-507.5 42.448 -507.896 40.564 -507.896 38.452C-507.896 36.34 -507.5 34.468 -506.708 32.836C-505.892 31.18 -504.788 29.884 -503.396 28.948C-501.98 27.988 -500.384 27.508 -498.608 27.508C-496.832 27.508 -495.248 27.988 -493.856 28.948C-492.44 29.884 -491.336 31.18 -490.544 32.836C-489.728 34.468 -489.32 36.34 -489.32 38.452ZM-494.18 38.452C-494.18 37.156 -494.372 36.028 -494.756 35.068C-495.116 34.084 -495.632 33.316 -496.304 32.764C-496.976 32.212 -497.744 31.936 -498.608 31.936C-499.496 31.936 -500.276 32.212 -500.948 32.764C-501.62 33.316 -502.148 34.084 -502.532 35.068C-502.892 36.028 -503.072 37.156 -503.072 38.452C-503.072 39.748 -502.892 40.876 -502.532 41.836C-502.148 42.796 -501.62 43.552 -500.948 44.104C-500.276 44.656 -499.496 44.932 -498.608 44.932C-497.744 44.932 -496.988 44.656 -496.34 44.104C-495.668 43.552 -495.14 42.796 -494.756 41.836C-494.372 40.852 -494.18 39.724 -494.18 38.452ZM-478.907 33.988C-480.011 33.988 -481.007 33.748 -481.895 33.268C-482.783 32.764 -483.503 32.104 -484.055 31.288C-484.583 30.448 -484.847 29.524 -484.847 28.516C-484.847 27.508 -484.583 26.596 -484.055 25.78C-483.503 24.94 -482.783 24.28 -481.895 23.8C-481.007 23.32 -480.011 23.08 -478.907 23.08C-477.803 23.08 -476.807 23.32 -475.919 23.8C-475.007 24.28 -474.287 24.94 -473.759 25.78C-473.231 26.596 -472.967 27.508 -472.967 28.516C-472.967 29.524 -473.231 30.448 -473.759 31.288C-474.287 32.104 -475.007 32.764 -475.919 33.268C-476.807 33.748 -477.803 33.988 -478.907 33.988ZM-478.907 31.576C-478.427 31.576 -477.995 31.432 -477.611 31.144C-477.227 30.856 -476.927 30.484 -476.711 30.028C-476.471 29.572 -476.351 29.08 -476.351 28.552C-476.351 27.976 -476.471 27.46 -476.711 27.004C-476.951 26.548 -477.263 26.188 -477.647 25.924C-478.031 25.636 -478.451 25.492 -478.907 25.492C-479.387 25.492 -479.819 25.636 -480.203 25.924C-480.587 26.188 -480.899 26.548 -481.139 27.004C-481.355 27.46 -481.463 27.964 -481.463 28.516C-481.463 29.068 -481.343 29.584 -481.103 30.064C-480.863 30.52 -480.551 30.892 -480.167 31.18C-479.783 31.444 -479.363 31.576 -478.907 31.576ZM-465.011 49.36C-466.115 49.36 -467.111 49.12 -467.999 48.64C-468.887 48.16 -469.607 47.512 -470.159 46.696C-470.687 45.856 -470.951 44.932 -470.951 43.924C-470.951 42.892 -470.687 41.968 -470.159 41.152C-469.607 40.336 -468.887 39.688 -467.999 39.208C-467.111 38.704 -466.115 38.452 -465.011 38.452C-463.907 38.452 -462.911 38.704 -462.023 39.208C-461.111 39.688 -460.391 40.336 -459.863 41.152C-459.335 41.968 -459.071 42.88 -459.071 43.888C-459.071 44.896 -459.335 45.82 -459.863 46.66C-460.391 47.476 -461.111 48.136 -462.023 48.64C-462.911 49.12 -463.907 49.36 -465.011 49.36ZM-465.011 46.948C-464.531 46.948 -464.099 46.804 -463.715 46.516C-463.331 46.228 -463.031 45.856 -462.815 45.4C-462.575 44.944 -462.455 44.452 -462.455 43.924C-462.455 43.348 -462.575 42.832 -462.815 42.376C-463.031 41.92 -463.343 41.56 -463.751 41.296C-464.135 41.008 -464.555 40.864 -465.011 40.864C-465.467 40.864 -465.899 41.008 -466.307 41.296C-466.691 41.56 -467.003 41.932 -467.243 42.412C-467.459 42.868 -467.567 43.36 -467.567 43.888C-467.567 44.464 -467.447 44.98 -467.207 45.436C-466.967 45.892 -466.655 46.264 -466.271 46.552C-465.887 46.816 -465.467 46.948 -465.011 46.948ZM-482.795 47.308L-472.679 35.464L-463.319 23.152L-461.123 25.096L-470.987 36.76L-480.635 49.252L-482.795 47.308ZM-443.613 49V23.44H-434.325C-431.541 23.44 -429.213 24.016 -427.341 25.168C-425.469 26.296 -424.065 27.832 -423.129 29.776C-422.193 31.696 -421.725 33.832 -421.725 36.184C-421.725 38.776 -422.241 41.032 -423.273 42.952C-424.305 44.872 -425.769 46.36 -427.665 47.416C-429.537 48.472 -431.757 49 -434.325 49H-443.613ZM-426.729 36.184C-426.729 34.528 -427.029 33.076 -427.629 31.828C-428.229 30.556 -429.093 29.572 -430.221 28.876C-431.349 28.156 -432.717 27.796 -434.325 27.796H-438.645V44.644H-434.325C-432.693 44.644 -431.313 44.284 -430.185 43.564C-429.057 42.82 -428.205 41.812 -427.629 40.54C-427.029 39.244 -426.729 37.792 -426.729 36.184ZM-416.404 49V23.44H-411.436V49H-416.404ZM-389.435 30.136C-389.603 29.968 -389.915 29.74 -390.371 29.452C-390.803 29.164 -391.343 28.888 -391.991 28.624C-392.615 28.36 -393.299 28.132 -394.043 27.94C-394.787 27.724 -395.543 27.616 -396.311 27.616C-397.655 27.616 -398.675 27.868 -399.371 28.372C-400.043 28.876 -400.379 29.584 -400.379 30.496C-400.379 31.192 -400.163 31.744 -399.731 32.152C-399.299 32.56 -398.651 32.908 -397.787 33.196C-396.923 33.484 -395.843 33.796 -394.547 34.132C-392.867 34.54 -391.415 35.044 -390.191 35.644C-388.943 36.22 -387.995 36.988 -387.347 37.948C-386.675 38.884 -386.339 40.132 -386.339 41.692C-386.339 43.06 -386.591 44.236 -387.095 45.22C-387.599 46.18 -388.295 46.96 -389.183 47.56C-390.071 48.16 -391.079 48.604 -392.207 48.892C-393.335 49.156 -394.535 49.288 -395.807 49.288C-397.079 49.288 -398.351 49.156 -399.623 48.892C-400.895 48.628 -402.119 48.256 -403.295 47.776C-404.471 47.272 -405.551 46.672 -406.535 45.976L-404.339 41.692C-404.123 41.908 -403.739 42.196 -403.187 42.556C-402.635 42.892 -401.963 43.24 -401.171 43.6C-400.379 43.936 -399.515 44.224 -398.579 44.464C-397.643 44.704 -396.695 44.824 -395.735 44.824C-394.391 44.824 -393.371 44.596 -392.675 44.14C-391.979 43.684 -391.631 43.036 -391.631 42.196C-391.631 41.428 -391.907 40.828 -392.459 40.396C-393.011 39.964 -393.779 39.592 -394.763 39.28C-395.747 38.944 -396.911 38.584 -398.255 38.2C-399.863 37.744 -401.207 37.24 -402.287 36.688C-403.367 36.112 -404.171 35.392 -404.699 34.528C-405.227 33.664 -405.491 32.584 -405.491 31.288C-405.491 29.536 -405.083 28.072 -404.267 26.896C-403.427 25.696 -402.299 24.796 -400.883 24.196C-399.467 23.572 -397.895 23.26 -396.167 23.26C-394.967 23.26 -393.839 23.392 -392.783 23.656C-391.703 23.92 -390.695 24.268 -389.759 24.7C-388.823 25.132 -387.983 25.6 -387.239 26.104L-389.435 30.136ZM-382.693 36.04C-382.693 34.48 -382.417 32.956 -381.865 31.468C-381.289 29.956 -380.461 28.588 -379.381 27.364C-378.301 26.116 -376.981 25.132 -375.421 24.412C-373.861 23.668 -372.085 23.296 -370.093 23.296C-367.741 23.296 -365.713 23.812 -364.009 24.844C-362.281 25.876 -360.997 27.22 -360.157 28.876L-363.973 31.504C-364.405 30.544 -364.969 29.788 -365.665 29.236C-366.361 28.66 -367.105 28.264 -367.897 28.048C-368.689 27.808 -369.469 27.688 -370.237 27.688C-371.485 27.688 -372.577 27.94 -373.513 28.444C-374.425 28.948 -375.193 29.608 -375.817 30.424C-376.441 31.24 -376.909 32.152 -377.221 33.16C-377.509 34.168 -377.653 35.176 -377.653 36.184C-377.653 37.312 -377.473 38.404 -377.113 39.46C-376.753 40.492 -376.249 41.416 -375.601 42.232C-374.929 43.024 -374.137 43.66 -373.225 44.14C-372.289 44.596 -371.269 44.824 -370.165 44.824C-369.373 44.824 -368.569 44.692 -367.753 44.428C-366.937 44.164 -366.181 43.744 -365.485 43.168C-364.789 42.592 -364.249 41.848 -363.865 40.936L-359.797 43.276C-360.301 44.548 -361.129 45.628 -362.281 46.516C-363.409 47.404 -364.681 48.076 -366.097 48.532C-367.513 48.988 -368.917 49.216 -370.309 49.216C-372.133 49.216 -373.801 48.844 -375.313 48.1C-376.825 47.332 -378.133 46.324 -379.237 45.076C-380.317 43.804 -381.169 42.388 -381.793 40.828C-382.393 39.244 -382.693 37.648 -382.693 36.04ZM-344.434 49.18C-346.306 49.18 -348.01 48.82 -349.546 48.1C-351.058 47.38 -352.366 46.408 -353.47 45.184C-354.55 43.936 -355.39 42.544 -355.99 41.008C-356.59 39.448 -356.89 37.852 -356.89 36.22C-356.89 34.516 -356.578 32.896 -355.954 31.36C-355.306 29.8 -354.43 28.42 -353.326 27.22C-352.198 25.996 -350.878 25.036 -349.366 24.34C-347.83 23.62 -346.15 23.26 -344.326 23.26C-342.478 23.26 -340.798 23.632 -339.286 24.376C-337.75 25.12 -336.442 26.116 -335.362 27.364C-334.282 28.612 -333.442 30.004 -332.842 31.54C-332.242 33.076 -331.942 34.66 -331.942 36.292C-331.942 37.972 -332.254 39.592 -332.878 41.152C-333.502 42.688 -334.378 44.068 -335.506 45.292C-336.61 46.492 -337.93 47.44 -339.466 48.136C-340.978 48.832 -342.634 49.18 -344.434 49.18ZM-351.85 36.22C-351.85 37.324 -351.682 38.392 -351.346 39.424C-351.01 40.456 -350.53 41.38 -349.906 42.196C-349.258 42.988 -348.478 43.624 -347.566 44.104C-346.63 44.56 -345.574 44.788 -344.398 44.788C-343.198 44.788 -342.13 44.548 -341.194 44.068C-340.258 43.564 -339.478 42.904 -338.854 42.088C-338.23 41.248 -337.762 40.324 -337.45 39.316C-337.114 38.284 -336.946 37.252 -336.946 36.22C-336.946 35.116 -337.126 34.06 -337.486 33.052C-337.822 32.02 -338.314 31.108 -338.962 30.316C-339.586 29.5 -340.366 28.864 -341.302 28.408C-342.214 27.928 -343.246 27.688 -344.398 27.688C-345.622 27.688 -346.702 27.94 -347.638 28.444C-348.55 28.924 -349.318 29.572 -349.942 30.388C-350.566 31.204 -351.046 32.116 -351.382 33.124C-351.694 34.132 -351.85 35.164 -351.85 36.22ZM-315.855 49.18C-317.895 49.18 -319.635 48.844 -321.075 48.172C-322.491 47.476 -323.643 46.528 -324.531 45.328C-325.395 44.128 -326.031 42.772 -326.439 41.26C-326.847 39.724 -327.051 38.128 -327.051 36.472V23.44H-322.083V36.472C-322.083 37.528 -321.987 38.56 -321.795 39.568C-321.579 40.552 -321.231 41.44 -320.751 42.232C-320.271 43.024 -319.635 43.648 -318.843 44.104C-318.051 44.56 -317.067 44.788 -315.891 44.788C-314.691 44.788 -313.695 44.56 -312.903 44.104C-312.087 43.624 -311.451 42.988 -310.995 42.196C-310.515 41.404 -310.167 40.516 -309.951 39.532C-309.735 38.524 -309.627 37.504 -309.627 36.472V23.44H-304.695V36.472C-304.695 38.224 -304.911 39.868 -305.343 41.404C-305.751 42.94 -306.411 44.296 -307.323 45.472C-308.211 46.624 -309.363 47.536 -310.779 48.208C-312.195 48.856 -313.887 49.18 -315.855 49.18ZM-293.283 32.584V49H-298.251V23.44H-294.291L-281.079 40.288V23.476H-276.111V49H-280.251L-293.283 32.584ZM-250.238 27.796H-258.41V49H-263.342V27.796H-271.514V23.44H-250.238V27.796ZM-235.047 23.44L-228.747 35.464L-222.339 23.44H-216.975L-226.263 40.072V49H-231.195V40L-240.447 23.44H-235.047ZM-203.466 49.18C-205.338 49.18 -207.042 48.82 -208.578 48.1C-210.09 47.38 -211.398 46.408 -212.502 45.184C-213.582 43.936 -214.422 42.544 -215.022 41.008C-215.622 39.448 -215.922 37.852 -215.922 36.22C-215.922 34.516 -215.61 32.896 -214.986 31.36C-214.338 29.8 -213.462 28.42 -212.358 27.22C-211.23 25.996 -209.91 25.036 -208.398 24.34C-206.862 23.62 -205.182 23.26 -203.358 23.26C-201.51 23.26 -199.83 23.632 -198.318 24.376C-196.782 25.12 -195.474 26.116 -194.394 27.364C-193.314 28.612 -192.474 30.004 -191.874 31.54C-191.274 33.076 -190.974 34.66 -190.974 36.292C-190.974 37.972 -191.286 39.592 -191.91 41.152C-192.534 42.688 -193.41 44.068 -194.538 45.292C-195.642 46.492 -196.962 47.44 -198.498 48.136C-200.01 48.832 -201.666 49.18 -203.466 49.18ZM-210.882 36.22C-210.882 37.324 -210.714 38.392 -210.378 39.424C-210.042 40.456 -209.562 41.38 -208.938 42.196C-208.29 42.988 -207.51 43.624 -206.598 44.104C-205.662 44.56 -204.606 44.788 -203.43 44.788C-202.23 44.788 -201.162 44.548 -200.226 44.068C-199.29 43.564 -198.51 42.904 -197.886 42.088C-197.262 41.248 -196.794 40.324 -196.482 39.316C-196.146 38.284 -195.978 37.252 -195.978 36.22C-195.978 35.116 -196.158 34.06 -196.518 33.052C-196.854 32.02 -197.346 31.108 -197.994 30.316C-198.618 29.5 -199.398 28.864 -200.334 28.408C-201.246 27.928 -202.278 27.688 -203.43 27.688C-204.654 27.688 -205.734 27.94 -206.67 28.444C-207.582 28.924 -208.35 29.572 -208.974 30.388C-209.598 31.204 -210.078 32.116 -210.414 33.124C-210.726 34.132 -210.882 35.164 -210.882 36.22ZM-174.887 49.18C-176.927 49.18 -178.667 48.844 -180.107 48.172C-181.523 47.476 -182.675 46.528 -183.563 45.328C-184.427 44.128 -185.063 42.772 -185.471 41.26C-185.879 39.724 -186.083 38.128 -186.083 36.472V23.44H-181.115V36.472C-181.115 37.528 -181.019 38.56 -180.827 39.568C-180.611 40.552 -180.263 41.44 -179.783 42.232C-179.303 43.024 -178.667 43.648 -177.875 44.104C-177.083 44.56 -176.099 44.788 -174.923 44.788C-173.723 44.788 -172.727 44.56 -171.935 44.104C-171.119 43.624 -170.483 42.988 -170.027 42.196C-169.547 41.404 -169.199 40.516 -168.983 39.532C-168.767 38.524 -168.659 37.504 -168.659 36.472V23.44H-163.727V36.472C-163.727 38.224 -163.943 39.868 -164.375 41.404C-164.783 42.94 -165.443 44.296 -166.355 45.472C-167.243 46.624 -168.395 47.536 -169.811 48.208C-171.227 48.856 -172.919 49.18 -174.887 49.18ZM-147.194 49V23.44H-135.89C-134.714 23.44 -133.634 23.68 -132.65 24.16C-131.642 24.64 -130.778 25.288 -130.058 26.104C-129.314 26.92 -128.75 27.832 -128.366 28.84C-127.958 29.848 -127.754 30.88 -127.754 31.936C-127.754 33.016 -127.946 34.06 -128.33 35.068C-128.69 36.052 -129.218 36.916 -129.914 37.66C-130.61 38.404 -131.426 38.98 -132.362 39.388L-126.53 49H-132.002L-137.258 40.432H-142.226V49H-147.194ZM-142.226 36.076H-135.998C-135.374 36.076 -134.822 35.896 -134.342 35.536C-133.862 35.152 -133.478 34.648 -133.19 34.024C-132.902 33.4 -132.758 32.704 -132.758 31.936C-132.758 31.12 -132.926 30.412 -133.262 29.812C-133.598 29.188 -134.03 28.696 -134.558 28.336C-135.062 27.976 -135.614 27.796 -136.214 27.796H-142.226V36.076ZM-104.065 44.644V49H-121.813V23.44H-104.389V27.796H-116.845V33.952H-106.081V37.984H-116.845V44.644H-104.065ZM-88.5888 49.18C-90.2448 49.18 -91.8168 48.844 -93.3048 48.172C-94.7688 47.5 -96.0648 46.576 -97.1928 45.4C-98.2968 44.2 -99.1608 42.808 -99.7848 41.224C-100.409 39.64 -100.721 37.924 -100.721 36.076C-100.721 34.324 -100.409 32.68 -99.7848 31.144C-99.1608 29.584 -98.2848 28.216 -97.1568 27.04C-96.0288 25.864 -94.7088 24.94 -93.1968 24.268C-91.6848 23.596 -90.0408 23.26 -88.2648 23.26C-85.8648 23.26 -83.8128 23.776 -82.1088 24.808C-80.3808 25.816 -79.0848 27.16 -78.2208 28.84L-81.9288 31.576C-82.5768 30.304 -83.4888 29.332 -84.6648 28.66C-85.8168 27.988 -87.0768 27.652 -88.4448 27.652C-89.5248 27.652 -90.5088 27.88 -91.3968 28.336C-92.2848 28.792 -93.0528 29.416 -93.7008 30.208C-94.3488 31 -94.8528 31.912 -95.2128 32.944C-95.5488 33.976 -95.7168 35.068 -95.7168 36.22C-95.7168 37.444 -95.5368 38.572 -95.1768 39.604C-94.7928 40.636 -94.2648 41.536 -93.5928 42.304C-92.8968 43.072 -92.0928 43.684 -91.1808 44.14C-90.2688 44.572 -89.2608 44.788 -88.1568 44.788C-86.8608 44.788 -85.6248 44.452 -84.4488 43.78C-83.2488 43.108 -82.1328 42.124 -81.1008 40.828V45.724C-83.2368 48.028 -85.7328 49.18 -88.5888 49.18ZM-81.4608 39.496H-86.6088V35.86H-77.3568V49H-81.4608V39.496ZM-71.6829 49V23.44H-66.7149V49H-71.6829ZM-44.7141 30.136C-44.8821 29.968 -45.1941 29.74 -45.6501 29.452C-46.0821 29.164 -46.6221 28.888 -47.2701 28.624C-47.8941 28.36 -48.5781 28.132 -49.3221 27.94C-50.0661 27.724 -50.8221 27.616 -51.5901 27.616C-52.9341 27.616 -53.9541 27.868 -54.6501 28.372C-55.3221 28.876 -55.6581 29.584 -55.6581 30.496C-55.6581 31.192 -55.4421 31.744 -55.0101 32.152C-54.5781 32.56 -53.9301 32.908 -53.0661 33.196C-52.2021 33.484 -51.1221 33.796 -49.8261 34.132C-48.1461 34.54 -46.6941 35.044 -45.4701 35.644C-44.2221 36.22 -43.2741 36.988 -42.6261 37.948C-41.9541 38.884 -41.6181 40.132 -41.6181 41.692C-41.6181 43.06 -41.8701 44.236 -42.3741 45.22C-42.8781 46.18 -43.5741 46.96 -44.4621 47.56C-45.3501 48.16 -46.3581 48.604 -47.4861 48.892C-48.6141 49.156 -49.8141 49.288 -51.0861 49.288C-52.3581 49.288 -53.6301 49.156 -54.9021 48.892C-56.1741 48.628 -57.3981 48.256 -58.5741 47.776C-59.7501 47.272 -60.8301 46.672 -61.8141 45.976L-59.6181 41.692C-59.4021 41.908 -59.0181 42.196 -58.4661 42.556C-57.9141 42.892 -57.2421 43.24 -56.4501 43.6C-55.6581 43.936 -54.7941 44.224 -53.8581 44.464C-52.9221 44.704 -51.9741 44.824 -51.0141 44.824C-49.6701 44.824 -48.6501 44.596 -47.9541 44.14C-47.2581 43.684 -46.9101 43.036 -46.9101 42.196C-46.9101 41.428 -47.1861 40.828 -47.7381 40.396C-48.2901 39.964 -49.0581 39.592 -50.0421 39.28C-51.0261 38.944 -52.1901 38.584 -53.5341 38.2C-55.1421 37.744 -56.4861 37.24 -57.5661 36.688C-58.6461 36.112 -59.4501 35.392 -59.9781 34.528C-60.5061 33.664 -60.7701 32.584 -60.7701 31.288C-60.7701 29.536 -60.3621 28.072 -59.5461 26.896C-58.7061 25.696 -57.5781 24.796 -56.1621 24.196C-54.7461 23.572 -53.1741 23.26 -51.4461 23.26C-50.2461 23.26 -49.1181 23.392 -48.0621 23.656C-46.9821 23.92 -45.9741 24.268 -45.0381 24.7C-44.1021 25.132 -43.2621 25.6 -42.5181 26.104L-44.7141 30.136ZM-17.308 27.796H-25.48V49H-30.412V27.796H-38.584V23.44H-17.308V27.796ZM5.05311 44.644V49H-12.6949V23.44H4.72911V27.796H-7.72689V33.952H3.03711V37.984H-7.72689V44.644H5.05311ZM10.3662 49V23.44H21.6702C22.8462 23.44 23.9262 23.68 24.9102 24.16C25.9182 24.64 26.7822 25.288 27.5022 26.104C28.2462 26.92 28.8102 27.832 29.1942 28.84C29.6022 29.848 29.8062 30.88 29.8062 31.936C29.8062 33.016 29.6142 34.06 29.2302 35.068C28.8702 36.052 28.3422 36.916 27.6462 37.66C26.9502 38.404 26.1342 38.98 25.1982 39.388L31.0302 49H25.5582L20.3022 40.432H15.3342V49H10.3662ZM15.3342 36.076H21.5622C22.1862 36.076 22.7382 35.896 23.2182 35.536C23.6982 35.152 24.0822 34.648 24.3702 34.024C24.6582 33.4 24.8022 32.704 24.8022 31.936C24.8022 31.12 24.6342 30.412 24.2982 29.812C23.9622 29.188 23.5302 28.696 23.0022 28.336C22.4982 27.976 21.9462 27.796 21.3462 27.796H15.3342V36.076ZM50.8041 32.584V49H45.8361V23.44H49.7961L63.0081 40.288V23.476H67.9761V49H63.8361L50.8041 32.584ZM85.6411 49.18C83.7691 49.18 82.0651 48.82 80.5291 48.1C79.0171 47.38 77.7091 46.408 76.6051 45.184C75.5251 43.936 74.6851 42.544 74.0851 41.008C73.4851 39.448 73.1851 37.852 73.1851 36.22C73.1851 34.516 73.4971 32.896 74.1211 31.36C74.7691 29.8 75.6451 28.42 76.7491 27.22C77.8771 25.996 79.1971 25.036 80.7091 24.34C82.2451 23.62 83.9251 23.26 85.7491 23.26C87.5971 23.26 89.2771 23.632 90.7891 24.376C92.3251 25.12 93.6331 26.116 94.7131 27.364C95.7931 28.612 96.6331 30.004 97.2331 31.54C97.8331 33.076 98.1331 34.66 98.1331 36.292C98.1331 37.972 97.8211 39.592 97.1971 41.152C96.5731 42.688 95.6971 44.068 94.5691 45.292C93.4651 46.492 92.1451 47.44 90.6091 48.136C89.0971 48.832 87.4411 49.18 85.6411 49.18ZM78.2251 36.22C78.2251 37.324 78.3931 38.392 78.7291 39.424C79.0651 40.456 79.5451 41.38 80.1691 42.196C80.8171 42.988 81.5971 43.624 82.5091 44.104C83.4451 44.56 84.5011 44.788 85.6771 44.788C86.8771 44.788 87.9451 44.548 88.8811 44.068C89.8171 43.564 90.5971 42.904 91.2211 42.088C91.8451 41.248 92.3131 40.324 92.6251 39.316C92.9611 38.284 93.1291 37.252 93.1291 36.22C93.1291 35.116 92.9491 34.06 92.5891 33.052C92.2531 32.02 91.7611 31.108 91.1131 30.316C90.4891 29.5 89.7091 28.864 88.7731 28.408C87.8611 27.928 86.8291 27.688 85.6771 27.688C84.4531 27.688 83.3731 27.94 82.4371 28.444C81.5251 28.924 80.7571 29.572 80.1331 30.388C79.5091 31.204 79.0291 32.116 78.6931 33.124C78.3811 34.132 78.2251 35.164 78.2251 36.22ZM111.113 23.512H115.721L118.637 31.972L121.589 23.512H126.161L121.769 35.14L125.009 43.276L132.245 23.44H137.645L127.421 49H123.137L118.637 38.272L114.173 49H109.889L99.7005 23.44H105.029L112.301 43.276L115.469 35.14L111.113 23.512Z" fill="url(#paint0_linear_1115_2632)"/>
<path d="M316.284 49.18C314.628 49.18 313.056 48.844 311.568 48.172C310.104 47.5 308.808 46.576 307.68 45.4C306.576 44.2 305.712 42.808 305.088 41.224C304.464 39.64 304.152 37.924 304.152 36.076C304.152 34.324 304.464 32.68 305.088 31.144C305.712 29.584 306.588 28.216 307.716 27.04C308.844 25.864 310.164 24.94 311.676 24.268C313.188 23.596 314.832 23.26 316.608 23.26C319.008 23.26 321.06 23.776 322.764 24.808C324.492 25.816 325.788 27.16 326.652 28.84L322.944 31.576C322.296 30.304 321.384 29.332 320.208 28.66C319.056 27.988 317.796 27.652 316.428 27.652C315.348 27.652 314.364 27.88 313.476 28.336C312.588 28.792 311.82 29.416 311.172 30.208C310.524 31 310.02 31.912 309.66 32.944C309.324 33.976 309.156 35.068 309.156 36.22C309.156 37.444 309.336 38.572 309.696 39.604C310.08 40.636 310.608 41.536 311.28 42.304C311.976 43.072 312.78 43.684 313.692 44.14C314.604 44.572 315.612 44.788 316.716 44.788C318.012 44.788 319.248 44.452 320.424 43.78C321.624 43.108 322.74 42.124 323.772 40.828V45.724C321.636 48.028 319.14 49.18 316.284 49.18ZM323.412 39.496H318.264V35.86H327.516V49H323.412V39.496ZM350.938 44.644V49H333.19V23.44H350.614V27.796H338.158V33.952H348.922V37.984H338.158V44.644H350.938ZM375.367 27.796H367.195V49H362.263V27.796H354.091V23.44H375.367V27.796ZM399.85 49.18C397.81 49.18 396.07 48.844 394.63 48.172C393.214 47.476 392.062 46.528 391.174 45.328C390.31 44.128 389.674 42.772 389.266 41.26C388.858 39.724 388.654 38.128 388.654 36.472V23.44H393.622V36.472C393.622 37.528 393.718 38.56 393.91 39.568C394.126 40.552 394.474 41.44 394.954 42.232C395.434 43.024 396.07 43.648 396.862 44.104C397.654 44.56 398.638 44.788 399.814 44.788C401.014 44.788 402.01 44.56 402.802 44.104C403.618 43.624 404.254 42.988 404.71 42.196C405.19 41.404 405.538 40.516 405.754 39.532C405.97 38.524 406.078 37.504 406.078 36.472V23.44H411.01V36.472C411.01 38.224 410.794 39.868 410.362 41.404C409.954 42.94 409.294 44.296 408.382 45.472C407.494 46.624 406.342 47.536 404.926 48.208C403.51 48.856 401.818 49.18 399.85 49.18ZM417.454 49V23.44H428.29C429.466 23.44 430.546 23.68 431.53 24.16C432.514 24.64 433.366 25.288 434.086 26.104C434.83 26.92 435.406 27.832 435.814 28.84C436.222 29.848 436.426 30.88 436.426 31.936C436.426 33.376 436.09 34.744 435.418 36.04C434.746 37.336 433.822 38.392 432.646 39.208C431.47 40.024 430.078 40.432 428.47 40.432H422.422V49H417.454ZM422.422 36.076H428.182C428.782 36.076 429.322 35.908 429.802 35.572C430.282 35.236 430.666 34.756 430.954 34.132C431.242 33.484 431.386 32.752 431.386 31.936C431.386 31.048 431.218 30.292 430.882 29.668C430.57 29.044 430.15 28.576 429.622 28.264C429.118 27.952 428.566 27.796 427.966 27.796H422.422V36.076ZM468.489 27.796H460.317V49H455.385V27.796H447.213V23.44H468.489V27.796ZM483.412 49.18C481.54 49.18 479.836 48.82 478.3 48.1C476.788 47.38 475.48 46.408 474.376 45.184C473.296 43.936 472.456 42.544 471.856 41.008C471.256 39.448 470.956 37.852 470.956 36.22C470.956 34.516 471.268 32.896 471.892 31.36C472.54 29.8 473.416 28.42 474.52 27.22C475.648 25.996 476.968 25.036 478.48 24.34C480.016 23.62 481.696 23.26 483.52 23.26C485.368 23.26 487.048 23.632 488.56 24.376C490.096 25.12 491.404 26.116 492.484 27.364C493.564 28.612 494.404 30.004 495.004 31.54C495.604 33.076 495.904 34.66 495.904 36.292C495.904 37.972 495.592 39.592 494.968 41.152C494.344 42.688 493.468 44.068 492.34 45.292C491.236 46.492 489.916 47.44 488.38 48.136C486.868 48.832 485.212 49.18 483.412 49.18ZM475.996 36.22C475.996 37.324 476.164 38.392 476.5 39.424C476.836 40.456 477.316 41.38 477.94 42.196C478.588 42.988 479.368 43.624 480.28 44.104C481.216 44.56 482.272 44.788 483.448 44.788C484.648 44.788 485.716 44.548 486.652 44.068C487.588 43.564 488.368 42.904 488.992 42.088C489.616 41.248 490.084 40.324 490.396 39.316C490.732 38.284 490.9 37.252 490.9 36.22C490.9 35.116 490.72 34.06 490.36 33.052C490.024 32.02 489.532 31.108 488.884 30.316C488.26 29.5 487.48 28.864 486.544 28.408C485.632 27.928 484.6 27.688 483.448 27.688C482.224 27.688 481.144 27.94 480.208 28.444C479.296 28.924 478.528 29.572 477.904 30.388C477.28 31.204 476.8 32.116 476.464 33.124C476.152 34.132 475.996 35.164 475.996 36.22ZM509.948 49C509.948 47.92 510.032 46.948 510.2 46.084C510.368 45.22 510.656 44.416 511.064 43.672C511.496 42.928 512.072 42.232 512.792 41.584C513.536 40.912 514.472 40.264 515.6 39.64C516.584 39.112 517.448 38.656 518.192 38.272C518.936 37.864 519.56 37.492 520.064 37.156C520.592 36.82 520.988 36.484 521.252 36.148C521.516 35.788 521.648 35.38 521.648 34.924C521.648 34.444 521.516 34.012 521.252 33.628C520.988 33.22 520.616 32.896 520.136 32.656C519.656 32.416 519.056 32.296 518.336 32.296C517.76 32.296 517.22 32.368 516.716 32.512C516.236 32.656 515.78 32.86 515.348 33.124C514.94 33.388 514.556 33.688 514.196 34.024C513.836 34.336 513.512 34.672 513.224 35.032L510.164 31.504C510.5 31.168 510.944 30.808 511.496 30.424C512.072 30.016 512.744 29.644 513.512 29.308C514.304 28.948 515.168 28.66 516.104 28.444C517.064 28.204 518.084 28.084 519.164 28.084C520.796 28.084 522.188 28.348 523.34 28.876C524.492 29.38 525.368 30.088 525.968 31C526.592 31.912 526.904 32.98 526.904 34.204C526.904 35.044 526.748 35.788 526.436 36.436C526.124 37.084 525.728 37.66 525.248 38.164C524.768 38.644 524.24 39.076 523.664 39.46C523.112 39.844 522.572 40.18 522.044 40.468C521.3 40.852 520.628 41.212 520.028 41.548C519.428 41.86 518.9 42.184 518.444 42.52C517.988 42.832 517.58 43.156 517.22 43.492C516.884 43.828 516.584 44.212 516.32 44.644H527.3V49H509.948ZM550.68 38.452C550.68 40.564 550.272 42.448 549.456 44.104C548.664 45.736 547.56 47.02 546.144 47.956C544.752 48.892 543.168 49.36 541.392 49.36C539.616 49.36 538.02 48.892 536.604 47.956C535.212 47.02 534.108 45.736 533.292 44.104C532.5 42.448 532.104 40.564 532.104 38.452C532.104 36.34 532.5 34.468 533.292 32.836C534.108 31.18 535.212 29.884 536.604 28.948C538.02 27.988 539.616 27.508 541.392 27.508C543.168 27.508 544.752 27.988 546.144 28.948C547.56 29.884 548.664 31.18 549.456 32.836C550.272 34.468 550.68 36.34 550.68 38.452ZM545.82 38.452C545.82 37.156 545.628 36.028 545.244 35.068C544.884 34.084 544.368 33.316 543.696 32.764C543.024 32.212 542.256 31.936 541.392 31.936C540.504 31.936 539.724 32.212 539.052 32.764C538.38 33.316 537.852 34.084 537.468 35.068C537.108 36.028 536.928 37.156 536.928 38.452C536.928 39.748 537.108 40.876 537.468 41.836C537.852 42.796 538.38 43.552 539.052 44.104C539.724 44.656 540.504 44.932 541.392 44.932C542.256 44.932 543.012 44.656 543.66 44.104C544.332 43.552 544.86 42.796 545.244 41.836C545.628 40.852 545.82 39.724 545.82 38.452ZM561.093 33.988C559.989 33.988 558.993 33.748 558.105 33.268C557.217 32.764 556.497 32.104 555.945 31.288C555.417 30.448 555.153 29.524 555.153 28.516C555.153 27.508 555.417 26.596 555.945 25.78C556.497 24.94 557.217 24.28 558.105 23.8C558.993 23.32 559.989 23.08 561.093 23.08C562.197 23.08 563.193 23.32 564.081 23.8C564.993 24.28 565.713 24.94 566.241 25.78C566.769 26.596 567.033 27.508 567.033 28.516C567.033 29.524 566.769 30.448 566.241 31.288C565.713 32.104 564.993 32.764 564.081 33.268C563.193 33.748 562.197 33.988 561.093 33.988ZM561.093 31.576C561.573 31.576 562.005 31.432 562.389 31.144C562.773 30.856 563.073 30.484 563.289 30.028C563.529 29.572 563.649 29.08 563.649 28.552C563.649 27.976 563.529 27.46 563.289 27.004C563.049 26.548 562.737 26.188 562.353 25.924C561.969 25.636 561.549 25.492 561.093 25.492C560.613 25.492 560.181 25.636 559.797 25.924C559.413 26.188 559.101 26.548 558.861 27.004C558.645 27.46 558.537 27.964 558.537 28.516C558.537 29.068 558.657 29.584 558.897 30.064C559.137 30.52 559.449 30.892 559.833 31.18C560.217 31.444 560.637 31.576 561.093 31.576ZM574.989 49.36C573.885 49.36 572.889 49.12 572.001 48.64C571.113 48.16 570.393 47.512 569.841 46.696C569.313 45.856 569.049 44.932 569.049 43.924C569.049 42.892 569.313 41.968 569.841 41.152C570.393 40.336 571.113 39.688 572.001 39.208C572.889 38.704 573.885 38.452 574.989 38.452C576.093 38.452 577.089 38.704 577.977 39.208C578.889 39.688 579.609 40.336 580.137 41.152C580.665 41.968 580.929 42.88 580.929 43.888C580.929 44.896 580.665 45.82 580.137 46.66C579.609 47.476 578.889 48.136 577.977 48.64C577.089 49.12 576.093 49.36 574.989 49.36ZM574.989 46.948C575.469 46.948 575.901 46.804 576.285 46.516C576.669 46.228 576.969 45.856 577.185 45.4C577.425 44.944 577.545 44.452 577.545 43.924C577.545 43.348 577.425 42.832 577.185 42.376C576.969 41.92 576.657 41.56 576.249 41.296C575.865 41.008 575.445 40.864 574.989 40.864C574.533 40.864 574.101 41.008 573.693 41.296C573.309 41.56 572.997 41.932 572.757 42.412C572.541 42.868 572.433 43.36 572.433 43.888C572.433 44.464 572.553 44.98 572.793 45.436C573.033 45.892 573.345 46.264 573.729 46.552C574.113 46.816 574.533 46.948 574.989 46.948ZM557.205 47.308L567.321 35.464L576.681 23.152L578.877 25.096L569.013 36.76L559.365 49.252L557.205 47.308ZM596.387 49V23.44H605.675C608.459 23.44 610.787 24.016 612.659 25.168C614.531 26.296 615.935 27.832 616.871 29.776C617.807 31.696 618.275 33.832 618.275 36.184C618.275 38.776 617.759 41.032 616.727 42.952C615.695 44.872 614.231 46.36 612.335 47.416C610.463 48.472 608.243 49 605.675 49H596.387ZM613.271 36.184C613.271 34.528 612.971 33.076 612.371 31.828C611.771 30.556 610.907 29.572 609.779 28.876C608.651 28.156 607.283 27.796 605.675 27.796H601.355V44.644H605.675C607.307 44.644 608.687 44.284 609.815 43.564C610.943 42.82 611.795 41.812 612.371 40.54C612.971 39.244 613.271 37.792 613.271 36.184ZM623.596 49V23.44H628.564V49H623.596ZM650.565 30.136C650.397 29.968 650.085 29.74 649.629 29.452C649.197 29.164 648.657 28.888 648.009 28.624C647.385 28.36 646.701 28.132 645.957 27.94C645.213 27.724 644.457 27.616 643.689 27.616C642.345 27.616 641.325 27.868 640.629 28.372C639.957 28.876 639.621 29.584 639.621 30.496C639.621 31.192 639.837 31.744 640.269 32.152C640.701 32.56 641.349 32.908 642.213 33.196C643.077 33.484 644.157 33.796 645.453 34.132C647.133 34.54 648.585 35.044 649.809 35.644C651.057 36.22 652.005 36.988 652.653 37.948C653.325 38.884 653.661 40.132 653.661 41.692C653.661 43.06 653.409 44.236 652.905 45.22C652.401 46.18 651.705 46.96 650.817 47.56C649.929 48.16 648.921 48.604 647.793 48.892C646.665 49.156 645.465 49.288 644.193 49.288C642.921 49.288 641.649 49.156 640.377 48.892C639.105 48.628 637.881 48.256 636.705 47.776C635.529 47.272 634.449 46.672 633.465 45.976L635.661 41.692C635.877 41.908 636.261 42.196 636.813 42.556C637.365 42.892 638.037 43.24 638.829 43.6C639.621 43.936 640.485 44.224 641.421 44.464C642.357 44.704 643.305 44.824 644.265 44.824C645.609 44.824 646.629 44.596 647.325 44.14C648.021 43.684 648.369 43.036 648.369 42.196C648.369 41.428 648.093 40.828 647.541 40.396C646.989 39.964 646.221 39.592 645.237 39.28C644.253 38.944 643.089 38.584 641.745 38.2C640.137 37.744 638.793 37.24 637.713 36.688C636.633 36.112 635.829 35.392 635.301 34.528C634.773 33.664 634.509 32.584 634.509 31.288C634.509 29.536 634.917 28.072 635.733 26.896C636.573 25.696 637.701 24.796 639.117 24.196C640.533 23.572 642.105 23.26 643.833 23.26C645.033 23.26 646.161 23.392 647.217 23.656C648.297 23.92 649.305 24.268 650.241 24.7C651.177 25.132 652.017 25.6 652.761 26.104L650.565 30.136ZM657.307 36.04C657.307 34.48 657.583 32.956 658.135 31.468C658.711 29.956 659.539 28.588 660.619 27.364C661.699 26.116 663.019 25.132 664.579 24.412C666.139 23.668 667.915 23.296 669.907 23.296C672.259 23.296 674.287 23.812 675.991 24.844C677.719 25.876 679.003 27.22 679.843 28.876L676.027 31.504C675.595 30.544 675.031 29.788 674.335 29.236C673.639 28.66 672.895 28.264 672.103 28.048C671.311 27.808 670.531 27.688 669.763 27.688C668.515 27.688 667.423 27.94 666.487 28.444C665.575 28.948 664.807 29.608 664.183 30.424C663.559 31.24 663.091 32.152 662.779 33.16C662.491 34.168 662.347 35.176 662.347 36.184C662.347 37.312 662.527 38.404 662.887 39.46C663.247 40.492 663.751 41.416 664.399 42.232C665.071 43.024 665.863 43.66 666.775 44.14C667.711 44.596 668.731 44.824 669.835 44.824C670.627 44.824 671.431 44.692 672.247 44.428C673.063 44.164 673.819 43.744 674.515 43.168C675.211 42.592 675.751 41.848 676.135 40.936L680.203 43.276C679.699 44.548 678.871 45.628 677.719 46.516C676.591 47.404 675.319 48.076 673.903 48.532C672.487 48.988 671.083 49.216 669.691 49.216C667.867 49.216 666.199 48.844 664.687 48.1C663.175 47.332 661.867 46.324 660.763 45.076C659.683 43.804 658.831 42.388 658.207 40.828C657.607 39.244 657.307 37.648 657.307 36.04ZM695.566 49.18C693.694 49.18 691.99 48.82 690.454 48.1C688.942 47.38 687.634 46.408 686.53 45.184C685.45 43.936 684.61 42.544 684.01 41.008C683.41 39.448 683.11 37.852 683.11 36.22C683.11 34.516 683.422 32.896 684.046 31.36C684.694 29.8 685.57 28.42 686.674 27.22C687.802 25.996 689.122 25.036 690.634 24.34C692.17 23.62 693.85 23.26 695.674 23.26C697.522 23.26 699.202 23.632 700.714 24.376C702.25 25.12 703.558 26.116 704.638 27.364C705.718 28.612 706.558 30.004 707.158 31.54C707.758 33.076 708.058 34.66 708.058 36.292C708.058 37.972 707.746 39.592 707.122 41.152C706.498 42.688 705.622 44.068 704.494 45.292C703.39 46.492 702.07 47.44 700.534 48.136C699.022 48.832 697.366 49.18 695.566 49.18ZM688.15 36.22C688.15 37.324 688.318 38.392 688.654 39.424C688.99 40.456 689.47 41.38 690.094 42.196C690.742 42.988 691.522 43.624 692.434 44.104C693.37 44.56 694.426 44.788 695.602 44.788C696.802 44.788 697.87 44.548 698.806 44.068C699.742 43.564 700.522 42.904 701.146 42.088C701.77 41.248 702.238 40.324 702.55 39.316C702.886 38.284 703.054 37.252 703.054 36.22C703.054 35.116 702.874 34.06 702.514 33.052C702.178 32.02 701.686 31.108 701.038 30.316C700.414 29.5 699.634 28.864 698.698 28.408C697.786 27.928 696.754 27.688 695.602 27.688C694.378 27.688 693.298 27.94 692.362 28.444C691.45 28.924 690.682 29.572 690.058 30.388C689.434 31.204 688.954 32.116 688.618 33.124C688.306 34.132 688.15 35.164 688.15 36.22ZM724.145 49.18C722.105 49.18 720.365 48.844 718.925 48.172C717.509 47.476 716.357 46.528 715.469 45.328C714.605 44.128 713.969 42.772 713.561 41.26C713.153 39.724 712.949 38.128 712.949 36.472V23.44H717.917V36.472C717.917 37.528 718.013 38.56 718.205 39.568C718.421 40.552 718.769 41.44 719.249 42.232C719.729 43.024 720.365 43.648 721.157 44.104C721.949 44.56 722.933 44.788 724.109 44.788C725.309 44.788 726.305 44.56 727.097 44.104C727.913 43.624 728.549 42.988 729.005 42.196C729.485 41.404 729.833 40.516 730.049 39.532C730.265 38.524 730.373 37.504 730.373 36.472V23.44H735.305V36.472C735.305 38.224 735.089 39.868 734.657 41.404C734.249 42.94 733.589 44.296 732.677 45.472C731.789 46.624 730.637 47.536 729.221 48.208C727.805 48.856 726.113 49.18 724.145 49.18ZM746.717 32.584V49H741.749V23.44H745.709L758.921 40.288V23.476H763.889V49H759.749L746.717 32.584ZM789.762 27.796H781.59V49H776.658V27.796H768.486V23.44H789.762V27.796ZM803.409 49V23.44H808.377V49H803.409ZM815.15 49V23.44H832.322V27.796H820.118V34.384H830.27V38.416H820.118V49H815.15ZM847.98 23.44L854.28 35.464L860.688 23.44H866.052L856.764 40.072V49H851.832V40L842.58 23.44H847.98ZM879.561 49.18C877.689 49.18 875.985 48.82 874.449 48.1C872.937 47.38 871.629 46.408 870.525 45.184C869.445 43.936 868.605 42.544 868.005 41.008C867.405 39.448 867.105 37.852 867.105 36.22C867.105 34.516 867.417 32.896 868.041 31.36C868.689 29.8 869.565 28.42 870.669 27.22C871.797 25.996 873.117 25.036 874.629 24.34C876.165 23.62 877.845 23.26 879.669 23.26C881.517 23.26 883.197 23.632 884.709 24.376C886.245 25.12 887.553 26.116 888.633 27.364C889.713 28.612 890.553 30.004 891.153 31.54C891.753 33.076 892.053 34.66 892.053 36.292C892.053 37.972 891.741 39.592 891.117 41.152C890.493 42.688 889.617 44.068 888.489 45.292C887.385 46.492 886.065 47.44 884.529 48.136C883.017 48.832 881.361 49.18 879.561 49.18ZM872.145 36.22C872.145 37.324 872.313 38.392 872.649 39.424C872.985 40.456 873.465 41.38 874.089 42.196C874.737 42.988 875.517 43.624 876.429 44.104C877.365 44.56 878.421 44.788 879.597 44.788C880.797 44.788 881.865 44.548 882.801 44.068C883.737 43.564 884.517 42.904 885.141 42.088C885.765 41.248 886.233 40.324 886.545 39.316C886.881 38.284 887.049 37.252 887.049 36.22C887.049 35.116 886.869 34.06 886.509 33.052C886.173 32.02 885.681 31.108 885.033 30.316C884.409 29.5 883.629 28.864 882.693 28.408C881.781 27.928 880.749 27.688 879.597 27.688C878.373 27.688 877.293 27.94 876.357 28.444C875.445 28.924 874.677 29.572 874.053 30.388C873.429 31.204 872.949 32.116 872.613 33.124C872.301 34.132 872.145 35.164 872.145 36.22ZM908.14 49.18C906.1 49.18 904.36 48.844 902.92 48.172C901.504 47.476 900.352 46.528 899.464 45.328C898.6 44.128 897.964 42.772 897.556 41.26C897.148 39.724 896.944 38.128 896.944 36.472V23.44H901.912V36.472C901.912 37.528 902.008 38.56 902.2 39.568C902.416 40.552 902.764 41.44 903.244 42.232C903.724 43.024 904.36 43.648 905.152 44.104C905.944 44.56 906.928 44.788 908.104 44.788C909.304 44.788 910.3 44.56 911.092 44.104C911.908 43.624 912.544 42.988 913 42.196C913.48 41.404 913.828 40.516 914.044 39.532C914.26 38.524 914.368 37.504 914.368 36.472V23.44H919.3V36.472C919.3 38.224 919.084 39.868 918.652 41.404C918.244 42.94 917.584 44.296 916.672 45.472C915.784 46.624 914.632 47.536 913.216 48.208C911.8 48.856 910.108 49.18 908.14 49.18ZM935.833 49V23.44H947.137C948.313 23.44 949.393 23.68 950.377 24.16C951.385 24.64 952.249 25.288 952.969 26.104C953.713 26.92 954.277 27.832 954.661 28.84C955.069 29.848 955.273 30.88 955.273 31.936C955.273 33.016 955.081 34.06 954.697 35.068C954.337 36.052 953.809 36.916 953.113 37.66C952.417 38.404 951.601 38.98 950.665 39.388L956.497 49H951.025L945.769 40.432H940.801V49H935.833ZM940.801 36.076H947.029C947.653 36.076 948.205 35.896 948.685 35.536C949.165 35.152 949.549 34.648 949.837 34.024C950.125 33.4 950.269 32.704 950.269 31.936C950.269 31.12 950.101 30.412 949.765 29.812C949.429 29.188 948.997 28.696 948.469 28.336C947.965 27.976 947.413 27.796 946.813 27.796H940.801V36.076ZM978.962 44.644V49H961.214V23.44H978.638V27.796H966.182V33.952H976.946V37.984H966.182V44.644H978.962ZM994.438 49.18C992.782 49.18 991.21 48.844 989.722 48.172C988.258 47.5 986.962 46.576 985.834 45.4C984.73 44.2 983.866 42.808 983.242 41.224C982.618 39.64 982.306 37.924 982.306 36.076C982.306 34.324 982.618 32.68 983.242 31.144C983.866 29.584 984.742 28.216 985.87 27.04C986.998 25.864 988.318 24.94 989.83 24.268C991.342 23.596 992.986 23.26 994.762 23.26C997.162 23.26 999.214 23.776 1000.92 24.808C1002.65 25.816 1003.94 27.16 1004.81 28.84L1001.1 31.576C1000.45 30.304 999.538 29.332 998.362 28.66C997.21 27.988 995.95 27.652 994.582 27.652C993.502 27.652 992.518 27.88 991.63 28.336C990.742 28.792 989.974 29.416 989.326 30.208C988.678 31 988.174 31.912 987.814 32.944C987.478 33.976 987.31 35.068 987.31 36.22C987.31 37.444 987.49 38.572 987.85 39.604C988.234 40.636 988.762 41.536 989.434 42.304C990.13 43.072 990.934 43.684 991.846 44.14C992.758 44.572 993.766 44.788 994.87 44.788C996.166 44.788 997.402 44.452 998.578 43.78C999.778 43.108 1000.89 42.124 1001.93 40.828V45.724C999.79 48.028 997.294 49.18 994.438 49.18ZM1001.57 39.496H996.418V35.86H1005.67V49H1001.57V39.496ZM1011.34 49V23.44H1016.31V49H1011.34ZM1038.31 30.136C1038.14 29.968 1037.83 29.74 1037.38 29.452C1036.94 29.164 1036.4 28.888 1035.76 28.624C1035.13 28.36 1034.45 28.132 1033.7 27.94C1032.96 27.724 1032.2 27.616 1031.44 27.616C1030.09 27.616 1029.07 27.868 1028.38 28.372C1027.7 28.876 1027.37 29.584 1027.37 30.496C1027.37 31.192 1027.58 31.744 1028.02 32.152C1028.45 32.56 1029.1 32.908 1029.96 33.196C1030.82 33.484 1031.9 33.796 1033.2 34.132C1034.88 34.54 1036.33 35.044 1037.56 35.644C1038.8 36.22 1039.75 36.988 1040.4 37.948C1041.07 38.884 1041.41 40.132 1041.41 41.692C1041.41 43.06 1041.16 44.236 1040.65 45.22C1040.15 46.18 1039.45 46.96 1038.56 47.56C1037.68 48.16 1036.67 48.604 1035.54 48.892C1034.41 49.156 1033.21 49.288 1031.94 49.288C1030.67 49.288 1029.4 49.156 1028.12 48.892C1026.85 48.628 1025.63 48.256 1024.45 47.776C1023.28 47.272 1022.2 46.672 1021.21 45.976L1023.41 41.692C1023.62 41.908 1024.01 42.196 1024.56 42.556C1025.11 42.892 1025.78 43.24 1026.58 43.6C1027.37 43.936 1028.23 44.224 1029.17 44.464C1030.1 44.704 1031.05 44.824 1032.01 44.824C1033.36 44.824 1034.38 44.596 1035.07 44.14C1035.77 43.684 1036.12 43.036 1036.12 42.196C1036.12 41.428 1035.84 40.828 1035.29 40.396C1034.74 39.964 1033.97 39.592 1032.98 39.28C1032 38.944 1030.84 38.584 1029.49 38.2C1027.88 37.744 1026.54 37.24 1025.46 36.688C1024.38 36.112 1023.58 35.392 1023.05 34.528C1022.52 33.664 1022.26 32.584 1022.26 31.288C1022.26 29.536 1022.66 28.072 1023.48 26.896C1024.32 25.696 1025.45 24.796 1026.86 24.196C1028.28 23.572 1029.85 23.26 1031.58 23.26C1032.78 23.26 1033.91 23.392 1034.96 23.656C1036.04 23.92 1037.05 24.268 1037.99 24.7C1038.92 25.132 1039.76 25.6 1040.51 26.104L1038.31 30.136ZM1065.72 27.796H1057.55V49H1052.62V27.796H1044.44V23.44H1065.72V27.796ZM1088.08 44.644V49H1070.33V23.44H1087.76V27.796H1075.3V33.952H1086.06V37.984H1075.3V44.644H1088.08ZM1093.39 49V23.44H1104.7C1105.87 23.44 1106.95 23.68 1107.94 24.16C1108.95 24.64 1109.81 25.288 1110.53 26.104C1111.27 26.92 1111.84 27.832 1112.22 28.84C1112.63 29.848 1112.83 30.88 1112.83 31.936C1112.83 33.016 1112.64 34.06 1112.26 35.068C1111.9 36.052 1111.37 36.916 1110.67 37.66C1109.98 38.404 1109.16 38.98 1108.23 39.388L1114.06 49H1108.59L1103.33 40.432H1098.36V49H1093.39ZM1098.36 36.076H1104.59C1105.21 36.076 1105.77 35.896 1106.25 35.536C1106.73 35.152 1107.11 34.648 1107.4 34.024C1107.69 33.4 1107.83 32.704 1107.83 31.936C1107.83 31.12 1107.66 30.412 1107.33 29.812C1106.99 29.188 1106.56 28.696 1106.03 28.336C1105.53 27.976 1104.97 27.796 1104.37 27.796H1098.36V36.076ZM1133.83 32.584V49H1128.86V23.44H1132.82L1146.04 40.288V23.476H1151V49H1146.86L1133.83 32.584ZM1168.67 49.18C1166.8 49.18 1165.09 48.82 1163.56 48.1C1162.04 47.38 1160.74 46.408 1159.63 45.184C1158.55 43.936 1157.71 42.544 1157.11 41.008C1156.51 39.448 1156.21 37.852 1156.21 36.22C1156.21 34.516 1156.52 32.896 1157.15 31.36C1157.8 29.8 1158.67 28.42 1159.78 27.22C1160.9 25.996 1162.22 25.036 1163.74 24.34C1165.27 23.62 1166.95 23.26 1168.78 23.26C1170.62 23.26 1172.3 23.632 1173.82 24.376C1175.35 25.12 1176.66 26.116 1177.74 27.364C1178.82 28.612 1179.66 30.004 1180.26 31.54C1180.86 33.076 1181.16 34.66 1181.16 36.292C1181.16 37.972 1180.85 39.592 1180.22 41.152C1179.6 42.688 1178.72 44.068 1177.6 45.292C1176.49 46.492 1175.17 47.44 1173.64 48.136C1172.12 48.832 1170.47 49.18 1168.67 49.18ZM1161.25 36.22C1161.25 37.324 1161.42 38.392 1161.76 39.424C1162.09 40.456 1162.57 41.38 1163.2 42.196C1163.84 42.988 1164.62 43.624 1165.54 44.104C1166.47 44.56 1167.53 44.788 1168.7 44.788C1169.9 44.788 1170.97 44.548 1171.91 44.068C1172.84 43.564 1173.62 42.904 1174.25 42.088C1174.87 41.248 1175.34 40.324 1175.65 39.316C1175.99 38.284 1176.16 37.252 1176.16 36.22C1176.16 35.116 1175.98 34.06 1175.62 33.052C1175.28 32.02 1174.79 31.108 1174.14 30.316C1173.52 29.5 1172.74 28.864 1171.8 28.408C1170.89 27.928 1169.86 27.688 1168.7 27.688C1167.48 27.688 1166.4 27.94 1165.46 28.444C1164.55 28.924 1163.78 29.572 1163.16 30.388C1162.54 31.204 1162.06 32.116 1161.72 33.124C1161.41 34.132 1161.25 35.164 1161.25 36.22ZM1194.14 23.512H1198.75L1201.66 31.972L1204.62 23.512H1209.19L1204.8 35.14L1208.04 43.276L1215.27 23.44H1220.67L1210.45 49H1206.16L1201.66 38.272L1197.2 49H1192.92L1182.73 23.44H1188.06L1195.33 43.276L1198.5 35.14L1194.14 23.512Z" fill="url(#paint1_linear_1115_2632)"/>
<path d="M246.881 7.2348C247.679 6.1329 249.321 6.1329 250.119 7.2348L252.173 10.0681C252.786 10.9148 253.948 11.1459 254.839 10.5985L257.82 8.76661C258.98 8.05417 260.497 8.68251 260.813 10.0061L261.625 13.4095C261.868 14.4265 262.854 15.0848 263.886 14.92L267.341 14.3683C268.685 14.1538 269.846 15.3148 269.632 16.6586L269.08 20.1139C268.915 21.1464 269.574 22.1317 270.591 22.3745L273.994 23.1872C275.317 23.5032 275.946 25.0202 275.233 26.1796L273.401 29.1607C272.854 30.0516 273.085 31.2138 273.932 31.8273L276.765 33.8805C277.867 34.679 277.867 36.321 276.765 37.1195L273.932 39.1727C273.085 39.7862 272.854 40.9484 273.401 41.8393L275.233 44.8204C275.946 45.9798 275.317 47.4968 273.994 47.8128L270.591 48.6255C269.574 48.8683 268.915 49.8536 269.08 50.8861L269.632 54.3414C269.846 55.6852 268.685 56.8462 267.341 56.6317L263.886 56.08C262.854 55.9152 261.868 56.5735 261.625 57.5905L260.813 60.9939C260.497 62.3175 258.98 62.9458 257.82 62.2334L254.839 60.4015C253.948 59.8541 252.786 60.0852 252.173 60.9319L250.119 63.7652C249.321 64.8671 247.679 64.8671 246.881 63.7652L244.827 60.9319C244.214 60.0852 243.052 59.8541 242.161 60.4015L239.18 62.2334C238.02 62.9458 236.503 62.3175 236.187 60.9939L235.375 57.5905C235.132 56.5735 234.146 55.9152 233.114 56.08L229.659 56.6317C228.315 56.8462 227.154 55.6852 227.368 54.3414L227.92 50.8861C228.085 49.8536 227.426 48.8683 226.409 48.6255L223.006 47.8128C221.683 47.4968 221.054 45.9798 221.767 44.8204L223.599 41.8393C224.146 40.9484 223.915 39.7862 223.068 39.1727L220.235 37.1195C219.133 36.321 219.133 34.679 220.235 33.8805L223.068 31.8273C223.915 31.2138 224.146 30.0516 223.599 29.1607L221.767 26.1796C221.054 25.0202 221.683 23.5032 223.006 23.1872L226.409 22.3745C227.426 22.1317 228.085 21.1464 227.92 20.1139L227.368 16.6586C227.154 15.3148 228.315 14.1538 229.659 14.3683L233.114 14.92C234.146 15.0848 235.132 14.4265 235.375 13.4095L236.187 10.0061C236.503 8.68251 238.02 8.05417 239.18 8.76661L242.161 10.5985C243.052 11.1459 244.214 10.9148 244.827 10.0681L246.881 7.2348Z" fill="#1A1A1A"/>
<path d="M244.226 34.226C243.627 34.226 243.086 34.089 242.603 33.8151C242.121 33.5274 241.73 33.1507 241.43 32.6849C241.143 32.2055 241 31.6781 241 31.1027C241 30.5274 241.143 30.0068 241.43 29.5411C241.73 29.0616 242.121 28.6849 242.603 28.411C243.086 28.137 243.627 28 244.226 28C244.826 28 245.367 28.137 245.849 28.411C246.345 28.6849 246.736 29.0616 247.022 29.5411C247.309 30.0068 247.453 30.5274 247.453 31.1027C247.453 31.6781 247.309 32.2055 247.022 32.6849C246.736 33.1507 246.345 33.5274 245.849 33.8151C245.367 34.089 244.826 34.226 244.226 34.226ZM244.226 32.8493C244.487 32.8493 244.722 32.7671 244.93 32.6027C245.139 32.4384 245.302 32.226 245.419 31.9658C245.549 31.7055 245.615 31.4247 245.615 31.1233C245.615 30.7945 245.549 30.5 245.419 30.2397C245.289 29.9795 245.119 29.774 244.911 29.6233C244.702 29.4589 244.474 29.3767 244.226 29.3767C243.966 29.3767 243.731 29.4589 243.522 29.6233C243.314 29.774 243.144 29.9795 243.014 30.2397C242.897 30.5 242.838 30.7877 242.838 31.1027C242.838 31.4178 242.903 31.7123 243.034 31.9863C243.164 32.2466 243.333 32.4589 243.542 32.6233C243.75 32.774 243.979 32.8493 244.226 32.8493ZM251.774 43C251.174 43 250.633 42.863 250.151 42.589C249.669 42.3151 249.277 41.9452 248.978 41.4795C248.691 41 248.547 40.4726 248.547 39.8973C248.547 39.3082 248.691 38.7808 248.978 38.3151C249.277 37.8493 249.669 37.4795 250.151 37.2055C250.633 36.9178 251.174 36.774 251.774 36.774C252.373 36.774 252.914 36.9178 253.397 37.2055C253.892 37.4795 254.283 37.8493 254.57 38.3151C254.857 38.7808 255 39.3014 255 39.8767C255 40.4521 254.857 40.9795 254.57 41.4589C254.283 41.9247 253.892 42.3014 253.397 42.589C252.914 42.863 252.373 43 251.774 43ZM251.774 41.6233C252.034 41.6233 252.269 41.5411 252.478 41.3767C252.686 41.2123 252.849 41 252.966 40.7397C253.097 40.4795 253.162 40.1986 253.162 39.8973C253.162 39.5685 253.097 39.274 252.966 39.0137C252.849 38.7534 252.68 38.5479 252.458 38.3973C252.25 38.2329 252.021 38.1507 251.774 38.1507C251.526 38.1507 251.291 38.2329 251.07 38.3973C250.861 38.5479 250.692 38.7603 250.561 39.0342C250.444 39.2945 250.385 39.5753 250.385 39.8767C250.385 40.2055 250.451 40.5 250.581 40.7603C250.711 41.0205 250.881 41.2329 251.089 41.3973C251.298 41.5479 251.526 41.6233 251.774 41.6233ZM242.115 41.8288L247.609 35.0685L252.693 28.0411L253.885 29.1507L248.528 35.8082L243.288 42.9384L242.115 41.8288Z" fill="white"/>
<path d="M1399.28 49.18C1397.63 49.18 1396.06 48.844 1394.57 48.172C1393.1 47.5 1391.81 46.576 1390.68 45.4C1389.58 44.2 1388.71 42.808 1388.09 41.224C1387.46 39.64 1387.15 37.924 1387.15 36.076C1387.15 34.324 1387.46 32.68 1388.09 31.144C1388.71 29.584 1389.59 28.216 1390.72 27.04C1391.84 25.864 1393.16 24.94 1394.68 24.268C1396.19 23.596 1397.83 23.26 1399.61 23.26C1402.01 23.26 1404.06 23.776 1405.76 24.808C1407.49 25.816 1408.79 27.16 1409.65 28.84L1405.94 31.576C1405.3 30.304 1404.38 29.332 1403.21 28.66C1402.06 27.988 1400.8 27.652 1399.43 27.652C1398.35 27.652 1397.36 27.88 1396.48 28.336C1395.59 28.792 1394.82 29.416 1394.17 30.208C1393.52 31 1393.02 31.912 1392.66 32.944C1392.32 33.976 1392.16 35.068 1392.16 36.22C1392.16 37.444 1392.34 38.572 1392.7 39.604C1393.08 40.636 1393.61 41.536 1394.28 42.304C1394.98 43.072 1395.78 43.684 1396.69 44.14C1397.6 44.572 1398.61 44.788 1399.72 44.788C1401.01 44.788 1402.25 44.452 1403.42 43.78C1404.62 43.108 1405.74 42.124 1406.77 40.828V45.724C1404.64 48.028 1402.14 49.18 1399.28 49.18ZM1406.41 39.496H1401.26V35.86H1410.52V49H1406.41V39.496ZM1433.94 44.644V49H1416.19V23.44H1433.61V27.796H1421.16V33.952H1431.92V37.984H1421.16V44.644H1433.94ZM1458.37 27.796H1450.2V49H1445.26V27.796H1437.09V23.44H1458.37V27.796ZM1482.85 49.18C1480.81 49.18 1479.07 48.844 1477.63 48.172C1476.21 47.476 1475.06 46.528 1474.17 45.328C1473.31 44.128 1472.67 42.772 1472.27 41.26C1471.86 39.724 1471.65 38.128 1471.65 36.472V23.44H1476.62V36.472C1476.62 37.528 1476.72 38.56 1476.91 39.568C1477.13 40.552 1477.47 41.44 1477.95 42.232C1478.43 43.024 1479.07 43.648 1479.86 44.104C1480.65 44.56 1481.64 44.788 1482.81 44.788C1484.01 44.788 1485.01 44.56 1485.8 44.104C1486.62 43.624 1487.25 42.988 1487.71 42.196C1488.19 41.404 1488.54 40.516 1488.75 39.532C1488.97 38.524 1489.08 37.504 1489.08 36.472V23.44H1494.01V36.472C1494.01 38.224 1493.79 39.868 1493.36 41.404C1492.95 42.94 1492.29 44.296 1491.38 45.472C1490.49 46.624 1489.34 47.536 1487.93 48.208C1486.51 48.856 1484.82 49.18 1482.85 49.18ZM1500.45 49V23.44H1511.29C1512.47 23.44 1513.55 23.68 1514.53 24.16C1515.51 24.64 1516.37 25.288 1517.09 26.104C1517.83 26.92 1518.41 27.832 1518.81 28.84C1519.22 29.848 1519.43 30.88 1519.43 31.936C1519.43 33.376 1519.09 34.744 1518.42 36.04C1517.75 37.336 1516.82 38.392 1515.65 39.208C1514.47 40.024 1513.08 40.432 1511.47 40.432H1505.42V49H1500.45ZM1505.42 36.076H1511.18C1511.78 36.076 1512.32 35.908 1512.8 35.572C1513.28 35.236 1513.67 34.756 1513.95 34.132C1514.24 33.484 1514.39 32.752 1514.39 31.936C1514.39 31.048 1514.22 30.292 1513.88 29.668C1513.57 29.044 1513.15 28.576 1512.62 28.264C1512.12 27.952 1511.57 27.796 1510.97 27.796H1505.42V36.076ZM1551.49 27.796H1543.32V49H1538.38V27.796H1530.21V23.44H1551.49V27.796ZM1566.41 49.18C1564.54 49.18 1562.84 48.82 1561.3 48.1C1559.79 47.38 1558.48 46.408 1557.38 45.184C1556.3 43.936 1555.46 42.544 1554.86 41.008C1554.26 39.448 1553.96 37.852 1553.96 36.22C1553.96 34.516 1554.27 32.896 1554.89 31.36C1555.54 29.8 1556.42 28.42 1557.52 27.22C1558.65 25.996 1559.97 25.036 1561.48 24.34C1563.02 23.62 1564.7 23.26 1566.52 23.26C1568.37 23.26 1570.05 23.632 1571.56 24.376C1573.1 25.12 1574.4 26.116 1575.48 27.364C1576.56 28.612 1577.4 30.004 1578 31.54C1578.6 33.076 1578.9 34.66 1578.9 36.292C1578.9 37.972 1578.59 39.592 1577.97 41.152C1577.34 42.688 1576.47 44.068 1575.34 45.292C1574.24 46.492 1572.92 47.44 1571.38 48.136C1569.87 48.832 1568.21 49.18 1566.41 49.18ZM1559 36.22C1559 37.324 1559.16 38.392 1559.5 39.424C1559.84 40.456 1560.32 41.38 1560.94 42.196C1561.59 42.988 1562.37 43.624 1563.28 44.104C1564.22 44.56 1565.27 44.788 1566.45 44.788C1567.65 44.788 1568.72 44.548 1569.65 44.068C1570.59 43.564 1571.37 42.904 1571.99 42.088C1572.62 41.248 1573.08 40.324 1573.4 39.316C1573.73 38.284 1573.9 37.252 1573.9 36.22C1573.9 35.116 1573.72 34.06 1573.36 33.052C1573.02 32.02 1572.53 31.108 1571.88 30.316C1571.26 29.5 1570.48 28.864 1569.54 28.408C1568.63 27.928 1567.6 27.688 1566.45 27.688C1565.22 27.688 1564.14 27.94 1563.21 28.444C1562.3 28.924 1561.53 29.572 1560.9 30.388C1560.28 31.204 1559.8 32.116 1559.46 33.124C1559.15 34.132 1559 35.164 1559 36.22ZM1592.95 49C1592.95 47.92 1593.03 46.948 1593.2 46.084C1593.37 45.22 1593.66 44.416 1594.06 43.672C1594.5 42.928 1595.07 42.232 1595.79 41.584C1596.54 40.912 1597.47 40.264 1598.6 39.64C1599.58 39.112 1600.45 38.656 1601.19 38.272C1601.94 37.864 1602.56 37.492 1603.06 37.156C1603.59 36.82 1603.99 36.484 1604.25 36.148C1604.52 35.788 1604.65 35.38 1604.65 34.924C1604.65 34.444 1604.52 34.012 1604.25 33.628C1603.99 33.22 1603.62 32.896 1603.14 32.656C1602.66 32.416 1602.06 32.296 1601.34 32.296C1600.76 32.296 1600.22 32.368 1599.72 32.512C1599.24 32.656 1598.78 32.86 1598.35 33.124C1597.94 33.388 1597.56 33.688 1597.2 34.024C1596.84 34.336 1596.51 34.672 1596.22 35.032L1593.16 31.504C1593.5 31.168 1593.94 30.808 1594.5 30.424C1595.07 30.016 1595.74 29.644 1596.51 29.308C1597.3 28.948 1598.17 28.66 1599.1 28.444C1600.06 28.204 1601.08 28.084 1602.16 28.084C1603.8 28.084 1605.19 28.348 1606.34 28.876C1607.49 29.38 1608.37 30.088 1608.97 31C1609.59 31.912 1609.9 32.98 1609.9 34.204C1609.9 35.044 1609.75 35.788 1609.44 36.436C1609.12 37.084 1608.73 37.66 1608.25 38.164C1607.77 38.644 1607.24 39.076 1606.66 39.46C1606.11 39.844 1605.57 40.18 1605.04 40.468C1604.3 40.852 1603.63 41.212 1603.03 41.548C1602.43 41.86 1601.9 42.184 1601.44 42.52C1600.99 42.832 1600.58 43.156 1600.22 43.492C1599.88 43.828 1599.58 44.212 1599.32 44.644H1610.3V49H1592.95ZM1633.68 38.452C1633.68 40.564 1633.27 42.448 1632.46 44.104C1631.66 45.736 1630.56 47.02 1629.14 47.956C1627.75 48.892 1626.17 49.36 1624.39 49.36C1622.62 49.36 1621.02 48.892 1619.6 47.956C1618.21 47.02 1617.11 45.736 1616.29 44.104C1615.5 42.448 1615.1 40.564 1615.1 38.452C1615.1 36.34 1615.5 34.468 1616.29 32.836C1617.11 31.18 1618.21 29.884 1619.6 28.948C1621.02 27.988 1622.62 27.508 1624.39 27.508C1626.17 27.508 1627.75 27.988 1629.14 28.948C1630.56 29.884 1631.66 31.18 1632.46 32.836C1633.27 34.468 1633.68 36.34 1633.68 38.452ZM1628.82 38.452C1628.82 37.156 1628.63 36.028 1628.24 35.068C1627.88 34.084 1627.37 33.316 1626.7 32.764C1626.02 32.212 1625.26 31.936 1624.39 31.936C1623.5 31.936 1622.72 32.212 1622.05 32.764C1621.38 33.316 1620.85 34.084 1620.47 35.068C1620.11 36.028 1619.93 37.156 1619.93 38.452C1619.93 39.748 1620.11 40.876 1620.47 41.836C1620.85 42.796 1621.38 43.552 1622.05 44.104C1622.72 44.656 1623.5 44.932 1624.39 44.932C1625.26 44.932 1626.01 44.656 1626.66 44.104C1627.33 43.552 1627.86 42.796 1628.24 41.836C1628.63 40.852 1628.82 39.724 1628.82 38.452ZM1644.09 33.988C1642.99 33.988 1641.99 33.748 1641.11 33.268C1640.22 32.764 1639.5 32.104 1638.95 31.288C1638.42 30.448 1638.15 29.524 1638.15 28.516C1638.15 27.508 1638.42 26.596 1638.95 25.78C1639.5 24.94 1640.22 24.28 1641.11 23.8C1641.99 23.32 1642.99 23.08 1644.09 23.08C1645.2 23.08 1646.19 23.32 1647.08 23.8C1647.99 24.28 1648.71 24.94 1649.24 25.78C1649.77 26.596 1650.03 27.508 1650.03 28.516C1650.03 29.524 1649.77 30.448 1649.24 31.288C1648.71 32.104 1647.99 32.764 1647.08 33.268C1646.19 33.748 1645.2 33.988 1644.09 33.988ZM1644.09 31.576C1644.57 31.576 1645.01 31.432 1645.39 31.144C1645.77 30.856 1646.07 30.484 1646.29 30.028C1646.53 29.572 1646.65 29.08 1646.65 28.552C1646.65 27.976 1646.53 27.46 1646.29 27.004C1646.05 26.548 1645.74 26.188 1645.35 25.924C1644.97 25.636 1644.55 25.492 1644.09 25.492C1643.61 25.492 1643.18 25.636 1642.8 25.924C1642.41 26.188 1642.1 26.548 1641.86 27.004C1641.65 27.46 1641.54 27.964 1641.54 28.516C1641.54 29.068 1641.66 29.584 1641.9 30.064C1642.14 30.52 1642.45 30.892 1642.83 31.18C1643.22 31.444 1643.64 31.576 1644.09 31.576ZM1657.99 49.36C1656.89 49.36 1655.89 49.12 1655 48.64C1654.11 48.16 1653.39 47.512 1652.84 46.696C1652.31 45.856 1652.05 44.932 1652.05 43.924C1652.05 42.892 1652.31 41.968 1652.84 41.152C1653.39 40.336 1654.11 39.688 1655 39.208C1655.89 38.704 1656.89 38.452 1657.99 38.452C1659.09 38.452 1660.09 38.704 1660.98 39.208C1661.89 39.688 1662.61 40.336 1663.14 41.152C1663.67 41.968 1663.93 42.88 1663.93 43.888C1663.93 44.896 1663.67 45.82 1663.14 46.66C1662.61 47.476 1661.89 48.136 1660.98 48.64C1660.09 49.12 1659.09 49.36 1657.99 49.36ZM1657.99 46.948C1658.47 46.948 1658.9 46.804 1659.29 46.516C1659.67 46.228 1659.97 45.856 1660.19 45.4C1660.43 44.944 1660.55 44.452 1660.55 43.924C1660.55 43.348 1660.43 42.832 1660.19 42.376C1659.97 41.92 1659.66 41.56 1659.25 41.296C1658.87 41.008 1658.45 40.864 1657.99 40.864C1657.53 40.864 1657.1 41.008 1656.69 41.296C1656.31 41.56 1656 41.932 1655.76 42.412C1655.54 42.868 1655.43 43.36 1655.43 43.888C1655.43 44.464 1655.55 44.98 1655.79 45.436C1656.03 45.892 1656.35 46.264 1656.73 46.552C1657.11 46.816 1657.53 46.948 1657.99 46.948ZM1640.21 47.308L1650.32 35.464L1659.68 23.152L1661.88 25.096L1652.01 36.76L1642.37 49.252L1640.21 47.308ZM1679.39 49V23.44H1688.67C1691.46 23.44 1693.79 24.016 1695.66 25.168C1697.53 26.296 1698.93 27.832 1699.87 29.776C1700.81 31.696 1701.27 33.832 1701.27 36.184C1701.27 38.776 1700.76 41.032 1699.73 42.952C1698.69 44.872 1697.23 46.36 1695.33 47.416C1693.46 48.472 1691.24 49 1688.67 49H1679.39ZM1696.27 36.184C1696.27 34.528 1695.97 33.076 1695.37 31.828C1694.77 30.556 1693.91 29.572 1692.78 28.876C1691.65 28.156 1690.28 27.796 1688.67 27.796H1684.35V44.644H1688.67C1690.31 44.644 1691.69 44.284 1692.81 43.564C1693.94 42.82 1694.79 41.812 1695.37 40.54C1695.97 39.244 1696.27 37.792 1696.27 36.184ZM1706.6 49V23.44H1711.56V49H1706.6ZM1733.56 30.136C1733.4 29.968 1733.08 29.74 1732.63 29.452C1732.2 29.164 1731.66 28.888 1731.01 28.624C1730.38 28.36 1729.7 28.132 1728.96 27.94C1728.21 27.724 1727.46 27.616 1726.69 27.616C1725.34 27.616 1724.32 27.868 1723.63 28.372C1722.96 28.876 1722.62 29.584 1722.62 30.496C1722.62 31.192 1722.84 31.744 1723.27 32.152C1723.7 32.56 1724.35 32.908 1725.21 33.196C1726.08 33.484 1727.16 33.796 1728.45 34.132C1730.13 34.54 1731.58 35.044 1732.81 35.644C1734.06 36.22 1735 36.988 1735.65 37.948C1736.32 38.884 1736.66 40.132 1736.66 41.692C1736.66 43.06 1736.41 44.236 1735.9 45.22C1735.4 46.18 1734.7 46.96 1733.82 47.56C1732.93 48.16 1731.92 48.604 1730.79 48.892C1729.66 49.156 1728.46 49.288 1727.19 49.288C1725.92 49.288 1724.65 49.156 1723.38 48.892C1722.1 48.628 1720.88 48.256 1719.7 47.776C1718.53 47.272 1717.45 46.672 1716.46 45.976L1718.66 41.692C1718.88 41.908 1719.26 42.196 1719.81 42.556C1720.36 42.892 1721.04 43.24 1721.83 43.6C1722.62 43.936 1723.48 44.224 1724.42 44.464C1725.36 44.704 1726.3 44.824 1727.26 44.824C1728.61 44.824 1729.63 44.596 1730.32 44.14C1731.02 43.684 1731.37 43.036 1731.37 42.196C1731.37 41.428 1731.09 40.828 1730.54 40.396C1729.99 39.964 1729.22 39.592 1728.24 39.28C1727.25 38.944 1726.09 38.584 1724.74 38.2C1723.14 37.744 1721.79 37.24 1720.71 36.688C1719.63 36.112 1718.83 35.392 1718.3 34.528C1717.77 33.664 1717.51 32.584 1717.51 31.288C1717.51 29.536 1717.92 28.072 1718.73 26.896C1719.57 25.696 1720.7 24.796 1722.12 24.196C1723.53 23.572 1725.1 23.26 1726.83 23.26C1728.03 23.26 1729.16 23.392 1730.22 23.656C1731.3 23.92 1732.3 24.268 1733.24 24.7C1734.18 25.132 1735.02 25.6 1735.76 26.104L1733.56 30.136ZM1740.31 36.04C1740.31 34.48 1740.58 32.956 1741.13 31.468C1741.71 29.956 1742.54 28.588 1743.62 27.364C1744.7 26.116 1746.02 25.132 1747.58 24.412C1749.14 23.668 1750.91 23.296 1752.91 23.296C1755.26 23.296 1757.29 23.812 1758.99 24.844C1760.72 25.876 1762 27.22 1762.84 28.876L1759.03 31.504C1758.59 30.544 1758.03 29.788 1757.33 29.236C1756.64 28.66 1755.89 28.264 1755.1 28.048C1754.31 27.808 1753.53 27.688 1752.76 27.688C1751.51 27.688 1750.42 27.94 1749.49 28.444C1748.57 28.948 1747.81 29.608 1747.18 30.424C1746.56 31.24 1746.09 32.152 1745.78 33.16C1745.49 34.168 1745.35 35.176 1745.35 36.184C1745.35 37.312 1745.53 38.404 1745.89 39.46C1746.25 40.492 1746.75 41.416 1747.4 42.232C1748.07 43.024 1748.86 43.66 1749.77 44.14C1750.71 44.596 1751.73 44.824 1752.83 44.824C1753.63 44.824 1754.43 44.692 1755.25 44.428C1756.06 44.164 1756.82 43.744 1757.51 43.168C1758.21 42.592 1758.75 41.848 1759.13 40.936L1763.2 43.276C1762.7 44.548 1761.87 45.628 1760.72 46.516C1759.59 47.404 1758.32 48.076 1756.9 48.532C1755.49 48.988 1754.08 49.216 1752.69 49.216C1750.87 49.216 1749.2 48.844 1747.69 48.1C1746.17 47.332 1744.87 46.324 1743.76 45.076C1742.68 43.804 1741.83 42.388 1741.21 40.828C1740.61 39.244 1740.31 37.648 1740.31 36.04ZM1778.57 49.18C1776.69 49.18 1774.99 48.82 1773.45 48.1C1771.94 47.38 1770.63 46.408 1769.53 45.184C1768.45 43.936 1767.61 42.544 1767.01 41.008C1766.41 39.448 1766.11 37.852 1766.11 36.22C1766.11 34.516 1766.42 32.896 1767.05 31.36C1767.69 29.8 1768.57 28.42 1769.67 27.22C1770.8 25.996 1772.12 25.036 1773.63 24.34C1775.17 23.62 1776.85 23.26 1778.67 23.26C1780.52 23.26 1782.2 23.632 1783.71 24.376C1785.25 25.12 1786.56 26.116 1787.64 27.364C1788.72 28.612 1789.56 30.004 1790.16 31.54C1790.76 33.076 1791.06 34.66 1791.06 36.292C1791.06 37.972 1790.75 39.592 1790.12 41.152C1789.5 42.688 1788.62 44.068 1787.49 45.292C1786.39 46.492 1785.07 47.44 1783.53 48.136C1782.02 48.832 1780.37 49.18 1778.57 49.18ZM1771.15 36.22C1771.15 37.324 1771.32 38.392 1771.65 39.424C1771.99 40.456 1772.47 41.38 1773.09 42.196C1773.74 42.988 1774.52 43.624 1775.43 44.104C1776.37 44.56 1777.43 44.788 1778.6 44.788C1779.8 44.788 1780.87 44.548 1781.81 44.068C1782.74 43.564 1783.52 42.904 1784.15 42.088C1784.77 41.248 1785.24 40.324 1785.55 39.316C1785.89 38.284 1786.05 37.252 1786.05 36.22C1786.05 35.116 1785.87 34.06 1785.51 33.052C1785.18 32.02 1784.69 31.108 1784.04 30.316C1783.41 29.5 1782.63 28.864 1781.7 28.408C1780.79 27.928 1779.75 27.688 1778.6 27.688C1777.38 27.688 1776.3 27.94 1775.36 28.444C1774.45 28.924 1773.68 29.572 1773.06 30.388C1772.43 31.204 1771.95 32.116 1771.62 33.124C1771.31 34.132 1771.15 35.164 1771.15 36.22ZM1807.15 49.18C1805.11 49.18 1803.37 48.844 1801.93 48.172C1800.51 47.476 1799.36 46.528 1798.47 45.328C1797.61 44.128 1796.97 42.772 1796.56 41.26C1796.15 39.724 1795.95 38.128 1795.95 36.472V23.44H1800.92V36.472C1800.92 37.528 1801.01 38.56 1801.21 39.568C1801.42 40.552 1801.77 41.44 1802.25 42.232C1802.73 43.024 1803.37 43.648 1804.16 44.104C1804.95 44.56 1805.93 44.788 1807.11 44.788C1808.31 44.788 1809.31 44.56 1810.1 44.104C1810.91 43.624 1811.55 42.988 1812.01 42.196C1812.49 41.404 1812.83 40.516 1813.05 39.532C1813.27 38.524 1813.37 37.504 1813.37 36.472V23.44H1818.31V36.472C1818.31 38.224 1818.09 39.868 1817.66 41.404C1817.25 42.94 1816.59 44.296 1815.68 45.472C1814.79 46.624 1813.64 47.536 1812.22 48.208C1810.81 48.856 1809.11 49.18 1807.15 49.18ZM1829.72 32.584V49H1824.75V23.44H1828.71L1841.92 40.288V23.476H1846.89V49H1842.75L1829.72 32.584ZM1872.76 27.796H1864.59V49H1859.66V27.796H1851.49V23.44H1872.76V27.796ZM1887.95 23.44L1894.25 35.464L1900.66 23.44H1906.03L1896.74 40.072V49H1891.81V40L1882.55 23.44H1887.95ZM1919.53 49.18C1917.66 49.18 1915.96 48.82 1914.42 48.1C1912.91 47.38 1911.6 46.408 1910.5 45.184C1909.42 43.936 1908.58 42.544 1907.98 41.008C1907.38 39.448 1907.08 37.852 1907.08 36.22C1907.08 34.516 1907.39 32.896 1908.01 31.36C1908.66 29.8 1909.54 28.42 1910.64 27.22C1911.77 25.996 1913.09 25.036 1914.6 24.34C1916.14 23.62 1917.82 23.26 1919.64 23.26C1921.49 23.26 1923.17 23.632 1924.68 24.376C1926.22 25.12 1927.53 26.116 1928.61 27.364C1929.69 28.612 1930.53 30.004 1931.13 31.54C1931.73 33.076 1932.03 34.66 1932.03 36.292C1932.03 37.972 1931.71 39.592 1931.09 41.152C1930.47 42.688 1929.59 44.068 1928.46 45.292C1927.36 46.492 1926.04 47.44 1924.5 48.136C1922.99 48.832 1921.33 49.18 1919.53 49.18ZM1912.12 36.22C1912.12 37.324 1912.29 38.392 1912.62 39.424C1912.96 40.456 1913.44 41.38 1914.06 42.196C1914.71 42.988 1915.49 43.624 1916.4 44.104C1917.34 44.56 1918.39 44.788 1919.57 44.788C1920.77 44.788 1921.84 44.548 1922.77 44.068C1923.71 43.564 1924.49 42.904 1925.11 42.088C1925.74 41.248 1926.21 40.324 1926.52 39.316C1926.85 38.284 1927.02 37.252 1927.02 36.22C1927.02 35.116 1926.84 34.06 1926.48 33.052C1926.15 32.02 1925.65 31.108 1925.01 30.316C1924.38 29.5 1923.6 28.864 1922.67 28.408C1921.75 27.928 1920.72 27.688 1919.57 27.688C1918.35 27.688 1917.27 27.94 1916.33 28.444C1915.42 28.924 1914.65 29.572 1914.03 30.388C1913.4 31.204 1912.92 32.116 1912.59 33.124C1912.27 34.132 1912.12 35.164 1912.12 36.22ZM1948.11 49.18C1946.07 49.18 1944.33 48.844 1942.89 48.172C1941.48 47.476 1940.33 46.528 1939.44 45.328C1938.57 44.128 1937.94 42.772 1937.53 41.26C1937.12 39.724 1936.92 38.128 1936.92 36.472V23.44H1941.89V36.472C1941.89 37.528 1941.98 38.56 1942.17 39.568C1942.39 40.552 1942.74 41.44 1943.22 42.232C1943.7 43.024 1944.33 43.648 1945.13 44.104C1945.92 44.56 1946.9 44.788 1948.08 44.788C1949.28 44.788 1950.27 44.56 1951.07 44.104C1951.88 43.624 1952.52 42.988 1952.97 42.196C1953.45 41.404 1953.8 40.516 1954.02 39.532C1954.23 38.524 1954.34 37.504 1954.34 36.472V23.44H1959.27V36.472C1959.27 38.224 1959.06 39.868 1958.63 41.404C1958.22 42.94 1957.56 44.296 1956.65 45.472C1955.76 46.624 1954.61 47.536 1953.19 48.208C1951.77 48.856 1950.08 49.18 1948.11 49.18ZM1975.81 49V23.44H1987.11C1988.29 23.44 1989.37 23.68 1990.35 24.16C1991.36 24.64 1992.22 25.288 1992.94 26.104C1993.69 26.92 1994.25 27.832 1994.63 28.84C1995.04 29.848 1995.25 30.88 1995.25 31.936C1995.25 33.016 1995.05 34.06 1994.67 35.068C1994.31 36.052 1993.78 36.916 1993.09 37.66C1992.39 38.404 1991.57 38.98 1990.64 39.388L1996.47 49H1991L1985.74 40.432H1980.77V49H1975.81ZM1980.77 36.076H1987C1987.63 36.076 1988.18 35.896 1988.66 35.536C1989.14 35.152 1989.52 34.648 1989.81 34.024C1990.1 33.4 1990.24 32.704 1990.24 31.936C1990.24 31.12 1990.07 30.412 1989.74 29.812C1989.4 29.188 1988.97 28.696 1988.44 28.336C1987.94 27.976 1987.39 27.796 1986.79 27.796H1980.77V36.076ZM2018.94 44.644V49H2001.19V23.44H2018.61V27.796H2006.16V33.952H2016.92V37.984H2006.16V44.644H2018.94ZM2034.41 49.18C2032.76 49.18 2031.18 48.844 2029.7 48.172C2028.23 47.5 2026.94 46.576 2025.81 45.4C2024.7 44.2 2023.84 42.808 2023.22 41.224C2022.59 39.64 2022.28 37.924 2022.28 36.076C2022.28 34.324 2022.59 32.68 2023.22 31.144C2023.84 29.584 2024.72 28.216 2025.84 27.04C2026.97 25.864 2028.29 24.94 2029.8 24.268C2031.32 23.596 2032.96 23.26 2034.74 23.26C2037.14 23.26 2039.19 23.776 2040.89 24.808C2042.62 25.816 2043.92 27.16 2044.78 28.84L2041.07 31.576C2040.42 30.304 2039.51 29.332 2038.34 28.66C2037.18 27.988 2035.92 27.652 2034.56 27.652C2033.48 27.652 2032.49 27.88 2031.6 28.336C2030.72 28.792 2029.95 29.416 2029.3 30.208C2028.65 31 2028.15 31.912 2027.79 32.944C2027.45 33.976 2027.28 35.068 2027.28 36.22C2027.28 37.444 2027.46 38.572 2027.82 39.604C2028.21 40.636 2028.74 41.536 2029.41 42.304C2030.1 43.072 2030.91 43.684 2031.82 44.14C2032.73 44.572 2033.74 44.788 2034.84 44.788C2036.14 44.788 2037.38 44.452 2038.55 43.78C2039.75 43.108 2040.87 42.124 2041.9 40.828V45.724C2039.76 48.028 2037.27 49.18 2034.41 49.18ZM2041.54 39.496H2036.39V35.86H2045.64V49H2041.54V39.496ZM2051.32 49V23.44H2056.29V49H2051.32ZM2078.29 30.136C2078.12 29.968 2077.81 29.74 2077.35 29.452C2076.92 29.164 2076.38 28.888 2075.73 28.624C2075.11 28.36 2074.42 28.132 2073.68 27.94C2072.93 27.724 2072.18 27.616 2071.41 27.616C2070.07 27.616 2069.05 27.868 2068.35 28.372C2067.68 28.876 2067.34 29.584 2067.34 30.496C2067.34 31.192 2067.56 31.744 2067.99 32.152C2068.42 32.56 2069.07 32.908 2069.93 33.196C2070.8 33.484 2071.88 33.796 2073.17 34.132C2074.85 34.54 2076.31 35.044 2077.53 35.644C2078.78 36.22 2079.73 36.988 2080.37 37.948C2081.05 38.884 2081.38 40.132 2081.38 41.692C2081.38 43.06 2081.13 44.236 2080.63 45.22C2080.12 46.18 2079.43 46.96 2078.54 47.56C2077.65 48.16 2076.64 48.604 2075.51 48.892C2074.39 49.156 2073.19 49.288 2071.91 49.288C2070.64 49.288 2069.37 49.156 2068.1 48.892C2066.83 48.628 2065.6 48.256 2064.43 47.776C2063.25 47.272 2062.17 46.672 2061.19 45.976L2063.38 41.692C2063.6 41.908 2063.98 42.196 2064.53 42.556C2065.09 42.892 2065.76 43.24 2066.55 43.6C2067.34 43.936 2068.21 44.224 2069.14 44.464C2070.08 44.704 2071.03 44.824 2071.99 44.824C2073.33 44.824 2074.35 44.596 2075.05 44.14C2075.74 43.684 2076.09 43.036 2076.09 42.196C2076.09 41.428 2075.81 40.828 2075.26 40.396C2074.71 39.964 2073.94 39.592 2072.96 39.28C2071.97 38.944 2070.81 38.584 2069.47 38.2C2067.86 37.744 2066.51 37.24 2065.43 36.688C2064.35 36.112 2063.55 35.392 2063.02 34.528C2062.49 33.664 2062.23 32.584 2062.23 31.288C2062.23 29.536 2062.64 28.072 2063.45 26.896C2064.29 25.696 2065.42 24.796 2066.84 24.196C2068.25 23.572 2069.83 23.26 2071.55 23.26C2072.75 23.26 2073.88 23.392 2074.94 23.656C2076.02 23.92 2077.03 24.268 2077.96 24.7C2078.9 25.132 2079.74 25.6 2080.48 26.104L2078.29 30.136ZM2105.69 27.796H2097.52V49H2092.59V27.796H2084.42V23.44H2105.69V27.796ZM2128.05 44.644V49H2110.31V23.44H2127.73V27.796H2115.27V33.952H2126.04V37.984H2115.27V44.644H2128.05ZM2133.37 49V23.44H2144.67C2145.85 23.44 2146.93 23.68 2147.91 24.16C2148.92 24.64 2149.78 25.288 2150.5 26.104C2151.25 26.92 2151.81 27.832 2152.19 28.84C2152.6 29.848 2152.81 30.88 2152.81 31.936C2152.81 33.016 2152.61 34.06 2152.23 35.068C2151.87 36.052 2151.34 36.916 2150.65 37.66C2149.95 38.404 2149.13 38.98 2148.2 39.388L2154.03 49H2148.56L2143.3 40.432H2138.33V49H2133.37ZM2138.33 36.076H2144.56C2145.19 36.076 2145.74 35.896 2146.22 35.536C2146.7 35.152 2147.08 34.648 2147.37 34.024C2147.66 33.4 2147.8 32.704 2147.8 31.936C2147.8 31.12 2147.63 30.412 2147.3 29.812C2146.96 29.188 2146.53 28.696 2146 28.336C2145.5 27.976 2144.95 27.796 2144.35 27.796H2138.33V36.076ZM2173.8 32.584V49H2168.84V23.44H2172.8L2186.01 40.288V23.476H2190.98V49H2186.84L2173.8 32.584ZM2208.64 49.18C2206.77 49.18 2205.07 48.82 2203.53 48.1C2202.02 47.38 2200.71 46.408 2199.61 45.184C2198.53 43.936 2197.69 42.544 2197.09 41.008C2196.49 39.448 2196.19 37.852 2196.19 36.22C2196.19 34.516 2196.5 32.896 2197.12 31.36C2197.77 29.8 2198.65 28.42 2199.75 27.22C2200.88 25.996 2202.2 25.036 2203.71 24.34C2205.25 23.62 2206.93 23.26 2208.75 23.26C2210.6 23.26 2212.28 23.632 2213.79 24.376C2215.33 25.12 2216.63 26.116 2217.71 27.364C2218.79 28.612 2219.63 30.004 2220.23 31.54C2220.83 33.076 2221.13 34.66 2221.13 36.292C2221.13 37.972 2220.82 39.592 2220.2 41.152C2219.57 42.688 2218.7 44.068 2217.57 45.292C2216.47 46.492 2215.15 47.44 2213.61 48.136C2212.1 48.832 2210.44 49.18 2208.64 49.18ZM2201.23 36.22C2201.23 37.324 2201.39 38.392 2201.73 39.424C2202.07 40.456 2202.55 41.38 2203.17 42.196C2203.82 42.988 2204.6 43.624 2205.51 44.104C2206.45 44.56 2207.5 44.788 2208.68 44.788C2209.88 44.788 2210.95 44.548 2211.88 44.068C2212.82 43.564 2213.6 42.904 2214.22 42.088C2214.85 41.248 2215.31 40.324 2215.63 39.316C2215.96 38.284 2216.13 37.252 2216.13 36.22C2216.13 35.116 2215.95 34.06 2215.59 33.052C2215.25 32.02 2214.76 31.108 2214.11 30.316C2213.49 29.5 2212.71 28.864 2211.77 28.408C2210.86 27.928 2209.83 27.688 2208.68 27.688C2207.45 27.688 2206.37 27.94 2205.44 28.444C2204.53 28.924 2203.76 29.572 2203.13 30.388C2202.51 31.204 2202.03 32.116 2201.69 33.124C2201.38 34.132 2201.23 35.164 2201.23 36.22ZM2234.11 23.512H2238.72L2241.64 31.972L2244.59 23.512H2249.16L2244.77 35.14L2248.01 43.276L2255.24 23.44H2260.64L2250.42 49H2246.14L2241.64 38.272L2237.17 49H2232.89L2222.7 23.44H2228.03L2235.3 43.276L2238.47 35.14L2234.11 23.512Z" fill="url(#paint2_linear_1115_2632)"/>
<path d="M1329.88 7.2348C1330.68 6.1329 1332.32 6.1329 1333.12 7.2348L1335.17 10.0681C1335.79 10.9148 1336.95 11.1459 1337.84 10.5985L1340.82 8.76661C1341.98 8.05417 1343.5 8.68251 1343.81 10.0061L1344.63 13.4095C1344.87 14.4265 1345.85 15.0848 1346.89 14.92L1350.34 14.3683C1351.69 14.1538 1352.85 15.3148 1352.63 16.6586L1352.08 20.1139C1351.92 21.1464 1352.57 22.1317 1353.59 22.3745L1356.99 23.1872C1358.32 23.5032 1358.95 25.0202 1358.23 26.1796L1356.4 29.1607C1355.85 30.0516 1356.09 31.2138 1356.93 31.8273L1359.77 33.8805C1360.87 34.679 1360.87 36.321 1359.77 37.1195L1356.93 39.1727C1356.09 39.7862 1355.85 40.9484 1356.4 41.8393L1358.23 44.8204C1358.95 45.9798 1358.32 47.4968 1356.99 47.8128L1353.59 48.6255C1352.57 48.8683 1351.92 49.8536 1352.08 50.8861L1352.63 54.3414C1352.85 55.6852 1351.69 56.8462 1350.34 56.6317L1346.89 56.08C1345.85 55.9152 1344.87 56.5735 1344.63 57.5905L1343.81 60.9939C1343.5 62.3175 1341.98 62.9458 1340.82 62.2334L1337.84 60.4015C1336.95 59.8541 1335.79 60.0852 1335.17 60.9319L1333.12 63.7652C1332.32 64.8671 1330.68 64.8671 1329.88 63.7652L1327.83 60.9319C1327.21 60.0852 1326.05 59.8541 1325.16 60.4015L1322.18 62.2334C1321.02 62.9458 1319.5 62.3175 1319.19 60.9939L1318.37 57.5905C1318.13 56.5735 1317.15 55.9152 1316.11 56.08L1312.66 56.6317C1311.31 56.8462 1310.15 55.6852 1310.37 54.3414L1310.92 50.8861C1311.08 49.8536 1310.43 48.8683 1309.41 48.6255L1306.01 47.8128C1304.68 47.4968 1304.05 45.9798 1304.77 44.8204L1306.6 41.8393C1307.15 40.9484 1306.91 39.7862 1306.07 39.1727L1303.23 37.1195C1302.13 36.321 1302.13 34.679 1303.23 33.8805L1306.07 31.8273C1306.91 31.2138 1307.15 30.0516 1306.6 29.1607L1304.77 26.1796C1304.05 25.0202 1304.68 23.5032 1306.01 23.1872L1309.41 22.3745C1310.43 22.1317 1311.08 21.1464 1310.92 20.1139L1310.37 16.6586C1310.15 15.3148 1311.31 14.1538 1312.66 14.3683L1316.11 14.92C1317.15 15.0848 1318.13 14.4265 1318.37 13.4095L1319.19 10.0061C1319.5 8.68251 1321.02 8.05417 1322.18 8.76661L1325.16 10.5985C1326.05 11.1459 1327.21 10.9148 1327.83 10.0681L1329.88 7.2348Z" fill="#1A1A1A"/>
<path d="M1327.23 34.226C1326.63 34.226 1326.09 34.089 1325.6 33.8151C1325.12 33.5274 1324.73 33.1507 1324.43 32.6849C1324.14 32.2055 1324 31.6781 1324 31.1027C1324 30.5274 1324.14 30.0068 1324.43 29.5411C1324.73 29.0616 1325.12 28.6849 1325.6 28.411C1326.09 28.137 1326.63 28 1327.23 28C1327.83 28 1328.37 28.137 1328.85 28.411C1329.34 28.6849 1329.74 29.0616 1330.02 29.5411C1330.31 30.0068 1330.45 30.5274 1330.45 31.1027C1330.45 31.6781 1330.31 32.2055 1330.02 32.6849C1329.74 33.1507 1329.34 33.5274 1328.85 33.8151C1328.37 34.089 1327.83 34.226 1327.23 34.226ZM1327.23 32.8493C1327.49 32.8493 1327.72 32.7671 1327.93 32.6027C1328.14 32.4384 1328.3 32.226 1328.42 31.9658C1328.55 31.7055 1328.61 31.4247 1328.61 31.1233C1328.61 30.7945 1328.55 30.5 1328.42 30.2397C1328.29 29.9795 1328.12 29.774 1327.91 29.6233C1327.7 29.4589 1327.47 29.3767 1327.23 29.3767C1326.97 29.3767 1326.73 29.4589 1326.52 29.6233C1326.31 29.774 1326.14 29.9795 1326.01 30.2397C1325.9 30.5 1325.84 30.7877 1325.84 31.1027C1325.84 31.4178 1325.9 31.7123 1326.03 31.9863C1326.16 32.2466 1326.33 32.4589 1326.54 32.6233C1326.75 32.774 1326.98 32.8493 1327.23 32.8493ZM1334.77 43C1334.17 43 1333.63 42.863 1333.15 42.589C1332.67 42.3151 1332.28 41.9452 1331.98 41.4795C1331.69 41 1331.55 40.4726 1331.55 39.8973C1331.55 39.3082 1331.69 38.7808 1331.98 38.3151C1332.28 37.8493 1332.67 37.4795 1333.15 37.2055C1333.63 36.9178 1334.17 36.774 1334.77 36.774C1335.37 36.774 1335.91 36.9178 1336.4 37.2055C1336.89 37.4795 1337.28 37.8493 1337.57 38.3151C1337.86 38.7808 1338 39.3014 1338 39.8767C1338 40.4521 1337.86 40.9795 1337.57 41.4589C1337.28 41.9247 1336.89 42.3014 1336.4 42.589C1335.91 42.863 1335.37 43 1334.77 43ZM1334.77 41.6233C1335.03 41.6233 1335.27 41.5411 1335.48 41.3767C1335.69 41.2123 1335.85 41 1335.97 40.7397C1336.1 40.4795 1336.16 40.1986 1336.16 39.8973C1336.16 39.5685 1336.1 39.274 1335.97 39.0137C1335.85 38.7534 1335.68 38.5479 1335.46 38.3973C1335.25 38.2329 1335.02 38.1507 1334.77 38.1507C1334.53 38.1507 1334.29 38.2329 1334.07 38.3973C1333.86 38.5479 1333.69 38.7603 1333.56 39.0342C1333.44 39.2945 1333.39 39.5753 1333.39 39.8767C1333.39 40.2055 1333.45 40.5 1333.58 40.7603C1333.71 41.0205 1333.88 41.2329 1334.09 41.3973C1334.3 41.5479 1334.53 41.6233 1334.77 41.6233ZM1325.11 41.8288L1330.61 35.0685L1335.69 28.0411L1336.89 29.1507L1331.53 35.8082L1326.29 42.9384L1325.11 41.8288Z" fill="white"/>
<defs>
<linearGradient id="paint0_linear_1115_2632" x1="126.242" y1="36.0002" x2="-826.166" y2="36" gradientUnits="userSpaceOnUse">
<stop stop-color="#1A1A1A"/>
<stop offset="1"/>
</linearGradient>
<linearGradient id="paint1_linear_1115_2632" x1="1208.66" y1="36.0002" x2="209.452" y2="36" gradientUnits="userSpaceOnUse">
<stop stop-color="#1A1A1A"/>
<stop offset="1"/>
</linearGradient>
<linearGradient id="paint2_linear_1115_2632" x1="2249.24" y1="36.0002" x2="1296.83" y2="36" gradientUnits="userSpaceOnUse">
<stop stop-color="#1A1A1A"/>
<stop offset="1"/>
</linearGradient>
</defs>
</svg>
